<svg data-v-fde0c5aa="" xmlns="http://www.w3.org/2000/svg" viewBox="0 0 300 300" class="iconAboveSlogan"><!----><defs data-v-fde0c5aa=""><!----></defs><rect data-v-fde0c5aa="" fill="transparent" x="0" y="0" width="300px" height="300px" class="logo-background-square"></rect><defs data-v-fde0c5aa=""><!----></defs><g data-v-fde0c5aa="" id="4498af5b-4d8d-44a9-88d6-bc4c0f9e3275" fill="#000000" transform="matrix(6.2659403892343635,0,0,6.2659403892343635,-0.970372864870777,137.23205739583102)"><path d="M4.30 14.11L4.30 14.11Q3.21 14.11 2.38 13.69L2.38 13.69L2.38 13.69Q1.55 13.26 1.11 12.49L1.11 12.49L1.11 12.49Q0.66 11.72 0.66 10.71L0.66 10.71L0.66 7.48L0.66 7.48Q0.66 6.47 1.11 5.70L1.11 5.70L1.11 5.70Q1.55 4.93 2.38 4.51L2.38 4.51L2.38 4.51Q3.21 4.09 4.30 4.09L4.30 4.09L4.30 4.09Q5.38 4.09 6.20 4.49L6.20 4.49L6.20 4.49Q7.01 4.89 7.47 5.62L7.47 5.62L7.47 5.62Q7.92 6.36 7.92 7.32L7.92 7.32L7.92 7.32Q7.92 7.45 7.70 7.48L7.70 7.48L6.20 7.57L6.15 7.57L6.15 7.57Q5.95 7.57 5.95 7.50L5.95 7.50L5.95 7.42L5.95 7.42Q5.95 6.68 5.50 6.23L5.50 6.23L5.50 6.23Q5.04 5.78 4.30 5.78L4.30 5.78L4.30 5.78Q3.54 5.78 3.09 6.23L3.09 6.23L3.09 6.23Q2.63 6.68 2.63 7.42L2.63 7.42L2.63 10.79L2.63 10.79Q2.63 11.52 3.09 11.97L3.09 11.97L3.09 11.97Q3.54 12.42 4.30 12.42L4.30 12.42L4.30 12.42Q5.04 12.42 5.50 11.97L5.50 11.97L5.50 11.97Q5.95 11.52 5.95 10.79L5.95 10.79L5.95 10.79Q5.95 10.72 6.01 10.68L6.01 10.68L6.01 10.68Q6.08 10.63 6.19 10.64L6.19 10.64L7.69 10.71L7.69 10.71Q7.92 10.74 7.92 10.78L7.92 10.78L7.92 10.85L7.92 10.85Q7.92 11.82 7.47 12.56L7.47 12.56L7.47 12.56Q7.01 13.30 6.20 13.71L6.20 13.71L6.20 13.71Q5.38 14.11 4.30 14.11L4.30 14.11ZM12.99 6.69L12.99 6.69Q14.11 6.69 14.80 7.38L14.80 7.38L14.80 7.38Q15.48 8.06 15.48 9.24L15.48 9.24L15.48 13.76L15.48 13.76Q15.48 14 15.25 14L15.25 14L13.75 14L13.75 14Q13.51 14 13.51 13.76L13.51 13.76L13.51 9.65L13.51 9.65Q13.51 9.09 13.20 8.74L13.20 8.74L13.20 8.74Q12.89 8.39 12.38 8.39L12.38 8.39L12.38 8.39Q11.86 8.39 11.54 8.74L11.54 8.74L11.54 8.74Q11.21 9.09 11.21 9.65L11.21 9.65L11.21 13.76L11.21 13.76Q11.21 14 10.98 14L10.98 14L9.48 14L9.48 14Q9.24 14 9.24 13.76L9.24 13.76L9.24 4.44L9.24 4.44Q9.24 4.20 9.48 4.20L9.48 4.20L10.98 4.20L10.98 4.20Q11.21 4.20 11.21 4.44L11.21 4.44L11.21 7.43L11.21 7.43Q11.21 7.49 11.24 7.50L11.24 7.50L11.24 7.50Q11.27 7.52 11.30 7.48L11.30 7.48L11.30 7.48Q11.87 6.69 12.99 6.69L12.99 6.69ZM19.78 6.69L19.78 6.69Q20.69 6.69 21.41 7.01L21.41 7.01L21.41 7.01Q22.12 7.32 22.52 7.87L22.52 7.87L22.52 7.87Q22.92 8.41 22.92 9.09L22.92 9.09L22.92 13.76L22.92 13.76Q22.92 14 22.68 14L22.68 14L21.18 14L21.18 14Q20.94 14 20.94 13.76L20.94 13.76L20.94 13.43L20.94 13.43Q20.94 13.37 20.92 13.36L20.92 13.36L20.92 13.36Q20.89 13.36 20.85 13.40L20.85 13.40L20.85 13.40Q20.20 14.11 18.93 14.11L18.93 14.11L18.93 14.11Q17.85 14.11 17.19 13.58L17.19 13.58L17.19 13.58Q16.53 13.05 16.53 12.01L16.53 12.01L16.53 12.01Q16.53 10.93 17.29 10.34L17.29 10.34L17.29 10.34Q18.05 9.74 19.45 9.74L19.45 9.74L20.86 9.74L20.86 9.74Q20.94 9.74 20.94 9.66L20.94 9.66L20.94 9.37L20.94 9.37Q20.94 8.90 20.66 8.64L20.66 8.64L20.66 8.64Q20.37 8.39 19.82 8.39L19.82 8.39L19.82 8.39Q19.40 8.39 19.13 8.53L19.13 8.53L19.13 8.53Q18.86 8.67 18.76 8.92L18.76 8.92L18.76 8.92Q18.68 9.11 18.48 9.10L18.48 9.10L16.93 8.90L16.93 8.90Q16.81 8.89 16.75 8.84L16.75 8.84L16.75 8.84Q16.69 8.79 16.70 8.71L16.70 8.71L16.70 8.71Q16.77 8.13 17.19 7.67L17.19 7.67L17.19 7.67Q17.60 7.21 18.28 6.95L18.28 6.95L18.28 6.95Q18.96 6.69 19.78 6.69L19.78 6.69ZM19.50 12.64L19.50 12.64Q20.10 12.64 20.52 12.32L20.52 12.32L20.52 12.32Q20.94 12.00 20.94 11.49L20.94 11.49L20.94 11.00L20.94 11.00Q20.94 10.92 20.86 10.92L20.86 10.92L19.87 10.92L19.87 10.92Q19.24 10.92 18.87 11.16L18.87 11.16L18.87 11.16Q18.51 11.40 18.51 11.83L18.51 11.83L18.51 11.83Q18.51 12.21 18.78 12.43L18.78 12.43L18.78 12.43Q19.05 12.64 19.50 12.64L19.50 12.64ZM24.56 14L24.56 14Q24.32 14 24.32 13.76L24.32 13.76L24.32 4.44L24.32 4.44Q24.32 4.20 24.56 4.20L24.56 4.20L26.05 4.20L26.05 4.20Q26.29 4.20 26.29 4.44L26.29 4.44L26.29 13.76L26.29 13.76Q26.29 14 26.05 14L26.05 14L24.56 14ZM31.25 12.45L31.25 12.45Q32.17 12.40 32.66 11.80L32.66 11.80L32.66 11.80Q32.75 11.70 32.84 11.70L32.84 11.70L32.84 11.70Q32.93 11.70 33.00 11.77L33.00 11.77L33.80 12.54L33.80 12.54Q33.88 12.63 33.88 12.71L33.88 12.71L33.88 12.71Q33.88 12.81 33.82 12.88L33.82 12.88L33.82 12.88Q33.36 13.45 32.64 13.78L32.64 13.78L32.64 13.78Q31.92 14.11 31.07 14.11L31.07 14.11L31.07 14.11Q29.78 14.11 28.93 13.45L28.93 13.45L28.93 13.45Q28.08 12.80 27.79 11.65L27.79 11.65L27.79 11.65Q27.62 11.03 27.62 10.35L27.62 10.35L27.62 10.35Q27.62 9.53 27.78 8.97L27.78 8.97L27.78 8.97Q28.06 7.94 28.90 7.31L28.90 7.31L28.90 7.31Q29.75 6.68 30.91 6.68L30.91 6.68L30.91 6.68Q32.28 6.68 33.09 7.49L33.09 7.49L33.09 7.49Q33.89 8.30 34.13 9.77L34.13 9.77L34.13 9.77Q34.19 10.23 34.22 10.79L34.22 10.79L34.22 10.79Q34.22 11.03 33.98 11.03L33.98 11.03L29.68 11.03L29.68 11.03Q29.60 11.03 29.60 11.12L29.60 11.12L29.60 11.12Q29.64 11.41 29.69 11.55L29.69 11.55L29.69 11.55Q29.83 11.98 30.25 12.21L30.25 12.21L30.25 12.21Q30.66 12.45 31.25 12.45L31.25 12.45ZM30.88 8.39L30.88 8.39Q30.44 8.39 30.14 8.60L30.14 8.60L30.14 8.60Q29.83 8.82 29.72 9.21L29.72 9.21L29.72 9.21Q29.65 9.48 29.64 9.56L29.64 9.56L29.64 9.56Q29.62 9.65 29.71 9.65L29.71 9.65L32.09 9.65L32.09 9.65Q32.16 9.65 32.16 9.59L32.16 9.59L32.16 9.59Q32.16 9.44 32.10 9.27L32.10 9.27L32.10 9.27Q31.98 8.86 31.67 8.62L31.67 8.62L31.67 8.62Q31.36 8.39 30.88 8.39L30.88 8.39ZM39.63 7.04L39.63 7.04Q39.63 6.80 39.87 6.80L39.87 6.80L41.37 6.80L41.37 6.80Q41.61 6.80 41.61 7.04L41.61 7.04L41.61 13.76L41.61 13.76Q41.61 14 41.37 14L41.37 14L39.87 14L39.87 14Q39.63 14 39.63 13.76L39.63 13.76L39.63 13.38L39.63 13.38Q39.63 13.33 39.60 13.32L39.60 13.32L39.60 13.32Q39.56 13.31 39.54 13.36L39.54 13.36L39.54 13.36Q38.99 14.10 37.81 14.10L37.81 14.10L37.81 14.10Q36.75 14.10 36.06 13.45L36.06 13.45L36.06 13.45Q35.38 12.81 35.38 11.65L35.38 11.65L35.38 7.04L35.38 7.04Q35.38 6.80 35.62 6.80L35.62 6.80L37.10 6.80L37.10 6.80Q37.34 6.80 37.34 7.04L37.34 7.04L37.34 11.16L37.34 11.16Q37.34 11.72 37.64 12.07L37.64 12.07L37.64 12.07Q37.94 12.42 38.47 12.42L38.47 12.42L38.47 12.42Q38.95 12.42 39.26 12.13L39.26 12.13L39.26 12.13Q39.56 11.84 39.63 11.38L39.63 11.38L39.63 7.04ZM46.65 6.71L46.65 6.71Q47.10 6.71 47.39 6.87L47.39 6.87L47.39 6.87Q47.56 6.96 47.52 7.17L47.52 7.17L47.25 8.64L47.25 8.64Q47.24 8.76 47.17 8.79L47.17 8.79L47.17 8.79Q47.11 8.82 46.97 8.79L46.97 8.79L46.97 8.79Q46.75 8.74 46.56 8.74L46.56 8.74L46.56 8.74Q46.47 8.74 46.24 8.76L46.24 8.76L46.24 8.76Q45.74 8.81 45.39 9.13L45.39 9.13L45.39 9.13Q45.04 9.46 45.04 10.01L45.04 10.01L45.04 13.76L45.04 13.76Q45.04 14 44.80 14L44.80 14L43.30 14L43.30 14Q43.06 14 43.06 13.76L43.06 13.76L43.06 7.04L43.06 7.04Q43.06 6.80 43.30 6.80L43.30 6.80L44.80 6.80L44.80 6.80Q45.04 6.80 45.04 7.04L45.04 7.04L45.04 7.48L45.04 7.48Q45.04 7.53 45.07 7.55L45.07 7.55L45.07 7.55Q45.09 7.56 45.14 7.52L45.14 7.52L45.14 7.52Q45.70 6.71 46.65 6.71L46.65 6.71Z"></path></g><defs data-v-fde0c5aa=""><linearGradient data-v-fde0c5aa="" gradientTransform="rotate(25)" id="14af2e9f-bc9d-42bc-99a0-17cc325d0ee6" x1="0%" y1="0%" x2="100%" y2="0%"><stop data-v-fde0c5aa="" offset="0%" stop-color="#01648B" stop-opacity="1"></stop><stop data-v-fde0c5aa="" offset="100%" stop-color="#5BD0A4" stop-opacity="1"></stop></linearGradient></defs><g data-v-fde0c5aa="" id="57254a5a-a8c2-4efa-be6c-d4811f9b014f" stroke="none" fill="url(#14af2e9f-bc9d-42bc-99a0-17cc325d0ee6)" transform="matrix(1.839644816559758,0,0,1.839644816559758,91.13136587008776,30.801775917201226)"><path d="M8 26h2v2H8zM12 26h10v2H12zM6 30h16v2H6zM6 34h12v2H6z"></path><path d="M59 44h-7.952l1.614-3.6A26.7 26.7 0 0 0 55 29.53a15.948 15.948 0 0 0-1.684-7.124 13.282 13.282 0 0 0-4.332-4.976l4.43-4.43H58v-2h-5a1 1 0 0 0-.707.293l-5.073 5.073a13.356 13.356 0 0 0-14.162 1.51 15.946 15.946 0 0 1 4.649-10.169l-1.414-1.414a18.051 18.051 0 0 0-3.518 5A10.012 10.012 0 0 0 23.5 5a1 1 0 0 0-1 1 10.011 10.011 0 0 0 8.792 9.92 18.18 18.18 0 0 0-.234 2.041l-.04-.032A13.369 13.369 0 0 0 10.909 22H5a3 3 0 0 0-3 3v12a3 3 0 0 0 3 3h6.173c.056.132.105.268.165.4l4.451 9.912a9.635 9.635 0 0 0 1.346 2.139L12.586 57H8v2h5a1 1 0 0 0 .707-.293l4.853-4.853a9.6 9.6 0 0 0 9.086 1.654L32 54.054l4.354 1.455a9.334 9.334 0 0 0 1.646.366V59a3 3 0 0 0 3 3h18a3 3 0 0 0 3-3V47a3 3 0 0 0-3-3zM24.567 7.071a8.019 8.019 0 0 1 6.858 6.858 8.019 8.019 0 0 1-6.858-6.858zM4 37V25a1 1 0 0 1 1-1h18a1 1 0 0 1 1 1v12a1 1 0 0 1-1 1h-3a1 1 0 0 0-1 1v2.131l-4.445-2.963A1.006 1.006 0 0 0 14 38H5a1 1 0 0 1-1-1zm32.986 16.612l-4.67-1.56a.977.977 0 0 0-.632 0l-4.667 1.558a7.6 7.6 0 0 1-7.032-1.181l4.722-4.722-1.414-1.414-4.733 4.733a7.564 7.564 0 0 1-.948-1.536L13.351 40h.349l5.748 3.832A1 1 0 0 0 21 43v-3h2a3 3 0 0 0 3-3V25a3 3 0 0 0-3-3h-9.763a11.3 11.3 0 0 1 9.423-5 11.427 11.427 0 0 1 7.105 2.49l1.61 1.29a1 1 0 0 0 1.25 0l1.609-1.289A11.349 11.349 0 0 1 45.7 17.886l-4.407 4.407 1.414 1.414 4.848-4.848a11.3 11.3 0 0 1 3.971 4.44A13.947 13.947 0 0 1 53 29.53a24.691 24.691 0 0 1-2.162 10.051l-1.649 3.677-4.634-3.09A1 1 0 0 0 43 41v3h-2a3 3 0 0 0-3 3v6.869a7.416 7.416 0 0 1-1.014-.257zM60 59a1 1 0 0 1-1 1H41a1 1 0 0 1-1-1V47a1 1 0 0 1 1-1h3a1 1 0 0 0 1-1v-2.131l4.445 2.963A1.006 1.006 0 0 0 50 46h9a1 1 0 0 1 1 1z"></path><path d="M54 56h2v2h-2zM42 56h10v2H42zM42 52h16v2H42zM46 48h12v2H46zM4 57h2v2H4zM60 11h2v2h-2z"></path></g><defs data-v-fde0c5aa=""><!----></defs><g data-v-fde0c5aa="" id="93ec0f34-d6b5-4ca4-b7a1-f401322f530f" fill="#000000" transform="matrix(2.105058470676308,0,0,2.105058470676308,38.08456121700269,225.49809194667094)"><path d="M2.04 16.24L2.04 16.24L2.04 16.24Q1.37 16.04 1.11 15.85L1.11 15.85L1.11 15.85Q0.85 15.65 0.85 15.36L0.85 15.36L0.85 15.36Q0.85 15.13 0.98 14.73L0.98 14.73L0.98 14.73Q1.11 14.32 1.35 13.77L1.35 13.77L1.35 13.77Q1.60 13.22 1.94 12.54L1.94 12.54L1.94 12.54Q2.28 11.87 2.72 11.10L2.72 11.10L2.72 11.10Q2.35 11.09 2.06 11.08L2.06 11.08L2.06 11.08Q1.78 11.07 1.60 11.07L1.60 11.07L1.60 11.07Q1.68 10.86 2.07 10.71L2.07 10.71L2.07 10.71Q2.46 10.56 3.11 10.44L3.11 10.44L3.11 10.44Q3.65 9.53 4.28 8.71L4.28 8.71L4.28 8.71Q4.90 7.88 5.53 7.19L5.53 7.19L5.53 7.19Q6.16 6.50 6.79 5.97L6.79 5.97L6.79 5.97Q7.42 5.45 7.99 5.14L7.99 5.14L7.99 5.14Q8.01 5.04 8.02 4.97L8.02 4.97L8.02 4.97Q8.02 4.90 8.02 4.87L8.02 4.87L8.02 4.87Q8.22 4.87 8.55 4.97L8.55 4.97L8.55 4.97Q8.88 5.07 9.19 5.21L9.19 5.21L9.19 5.21Q9.51 5.35 9.75 5.49L9.75 5.49L9.75 5.49Q10.00 5.64 10.02 5.74L10.02 5.74L10.02 5.74Q9.56 6.55 9.11 8.17L9.11 8.17L9.11 8.17Q8.67 9.79 8.37 12.04L8.37 12.04L8.37 12.04Q8.30 12.60 8.25 13.31L8.25 13.31L8.25 13.31Q8.20 14.03 8.20 14.91L8.20 14.91L8.20 14.91Q8.20 15.22 8.20 15.54L8.20 15.54L8.20 15.54Q8.20 15.86 8.23 16.21L8.23 16.21L8.23 16.21Q8.20 16.23 8.18 16.23L8.18 16.23L8.18 16.23Q8.15 16.23 8.06 16.23L8.06 16.23L8.06 16.23Q7.87 16.23 7.61 16.16L7.61 16.16L7.61 16.16Q7.35 16.10 7.11 16.01L7.11 16.01L7.11 16.01Q6.86 15.92 6.69 15.81L6.69 15.81L6.69 15.81Q6.51 15.69 6.47 15.61L6.47 15.61L6.47 15.61Q6.45 15.43 6.45 15.25L6.45 15.25L6.45 15.25Q6.45 15.08 6.45 14.88L6.45 14.88L6.45 14.88Q6.45 14.01 6.52 13.12L6.52 13.12L6.52 13.12Q6.58 12.22 6.73 11.27L6.73 11.27L6.73 11.27Q6.54 11.26 6.22 11.23L6.22 11.23L6.22 11.23Q5.89 11.21 5.50 11.20L5.50 11.20L5.50 11.20Q5.10 11.19 4.64 11.16L4.64 11.16L4.64 11.16Q4.19 11.14 3.75 11.13L3.75 11.13L3.75 11.13Q3.42 11.76 3.12 12.38L3.12 12.38L3.12 12.38Q2.83 13.01 2.62 13.64L2.62 13.64L2.62 13.64Q2.38 14.31 2.23 14.98L2.23 14.98L2.23 14.98Q2.09 15.65 2.04 16.24ZM7.45 7.83L7.45 7.83L7.45 7.83Q7.50 7.63 7.58 7.29L7.58 7.29L7.58 7.29Q7.66 6.94 7.73 6.57L7.73 6.57L7.73 6.57Q7.38 6.69 6.95 7.03L6.95 7.03L6.95 7.03Q6.52 7.36 6.07 7.86L6.07 7.86L6.07 7.86Q5.61 8.36 5.15 8.98L5.15 8.98L5.15 8.98Q4.68 9.60 4.24 10.30L4.24 10.30L4.24 10.30Q5.42 10.21 6.92 10.18L6.92 10.18L6.92 10.18Q7.03 9.59 7.16 9.01L7.16 9.01L7.16 9.01Q7.29 8.43 7.45 7.83ZM18.34 14.45L18.34 14.45L18.34 14.45Q18.55 13.99 18.84 13.26L18.84 13.26L18.84 13.26Q19.14 12.53 19.46 11.68L19.46 11.68L19.46 11.68Q19.78 10.84 20.12 9.95L20.12 9.95L20.12 9.95Q20.45 9.06 20.75 8.26L20.75 8.26L20.75 8.26Q21.04 7.46 21.26 6.83L21.26 6.83L21.26 6.83Q21.48 6.20 21.57 5.87L21.57 5.87L21.57 5.87Q20.69 6.23 20.06 6.97L20.06 6.97L20.06 6.97Q19.43 7.71 19.11 8.83L19.11 8.83L19.11 8.83Q18.79 8.72 18.52 8.43L18.52 8.43L18.52 8.43Q18.26 8.15 18.17 7.71L18.17 7.71L18.17 7.71Q18.31 7.07 18.70 6.54L18.70 6.54L18.70 6.54Q19.08 6.01 19.67 5.63L19.67 5.63L19.67 5.63Q20.26 5.25 21.03 5.05L21.03 5.05L21.03 5.05Q21.80 4.84 22.68 4.84L22.68 4.84L22.68 4.84Q23.80 4.84 24.74 5.17L24.74 5.17L24.74 5.17Q25.68 5.50 26.35 6.09L26.35 6.09L26.35 6.09Q27.02 6.68 27.40 7.50L27.40 7.50L27.40 7.50Q27.78 8.33 27.78 9.34L27.78 9.34L27.78 9.34Q27.78 10.71 27.27 11.96L27.27 11.96L27.27 11.96Q26.77 13.20 25.91 14.15L25.91 14.15L25.91 14.15Q25.05 15.11 23.91 15.67L23.91 15.67L23.91 15.67Q22.78 16.24 21.53 16.24L21.53 16.24L21.53 16.24Q20.38 16.24 19.56 15.79L19.56 15.79L19.56 15.79Q18.75 15.33 18.34 14.45ZM23.28 5.54L23.28 5.54L23.28 5.54Q22.58 5.54 21.95 5.74L21.95 5.74L21.95 5.74Q22.57 5.96 22.97 6.21L22.97 6.21L22.97 6.21Q23.38 6.45 23.53 6.59L23.53 6.59L23.53 6.59Q23.42 6.75 23.20 7.14L23.20 7.14L23.20 7.14Q22.99 7.53 22.70 8.09L22.70 8.09L22.70 8.09Q22.41 8.65 22.09 9.32L22.09 9.32L22.09 9.32Q21.77 9.98 21.46 10.68L21.46 10.68L21.46 10.68Q20.66 12.46 20.31 13.48L20.31 13.48L20.31 13.48Q19.95 14.50 19.95 14.90L19.95 14.90L19.95 14.90Q20.15 14.97 20.43 14.99L20.43 14.99L20.43 14.99Q20.71 15.02 21.03 15.02L21.03 15.02L21.03 15.02Q22.16 15.02 23.18 14.50L23.18 14.50L23.18 14.50Q24.19 13.97 24.95 13.09L24.95 13.09L24.95 13.09Q25.72 12.21 26.16 11.04L26.16 11.04L26.16 11.04Q26.60 9.87 26.60 8.58L26.60 8.58L26.60 8.58Q26.60 7.14 25.70 6.34L25.70 6.34L25.70 6.34Q24.81 5.54 23.28 5.54ZM39.41 16.07L39.41 16.07L39.41 16.07Q39.09 16.24 38.72 16.24L38.72 16.24L38.72 16.24Q38.28 16.18 37.86 16.02L37.86 16.02L37.86 16.02Q37.45 15.85 37.25 15.61L37.25 15.61L37.25 15.61Q37.14 14.92 37.07 14.35L37.07 14.35L37.07 14.35Q37.00 13.78 36.96 13.27L36.96 13.27L36.96 13.27Q36.92 12.75 36.90 12.29L36.90 12.29L36.90 12.29Q36.89 11.82 36.89 11.34L36.89 11.34L36.89 11.34Q36.89 10.71 36.90 10.01L36.90 10.01L36.90 10.01Q36.92 9.31 36.94 8.52L36.94 8.52L36.94 8.52Q36.96 7.73 36.97 6.82L36.97 6.82L36.97 6.82Q36.99 5.92 36.99 4.86L36.99 4.86L36.99 4.86Q37.17 4.86 37.53 4.96L37.53 4.96L37.53 4.96Q37.90 5.07 38.25 5.21L38.25 5.21L38.25 5.21Q38.61 5.35 38.89 5.49L38.89 5.49L38.89 5.49Q39.17 5.64 39.20 5.74L39.20 5.74L39.20 5.74Q39.06 6.13 38.95 6.76L38.95 6.76L38.95 6.76Q38.85 7.39 38.79 8.16L38.79 8.16L38.79 8.16Q38.72 8.93 38.70 9.79L38.70 9.79L38.70 9.79Q38.67 10.64 38.67 11.48L38.67 11.48L38.67 11.48Q38.67 12.11 38.68 12.61L38.68 12.61L38.68 12.61Q38.70 13.10 38.72 13.50L38.72 13.50L38.72 13.50Q38.74 13.90 38.78 14.25L38.78 14.25L38.78 14.25Q38.82 14.59 38.88 14.92L38.88 14.92L38.88 14.92Q39.27 13.73 39.74 12.54L39.74 12.54L39.74 12.54Q40.21 11.35 40.70 10.25L40.70 10.25L40.70 10.25Q41.20 9.16 41.69 8.20L41.69 8.20L41.69 8.20Q42.18 7.25 42.62 6.54L42.62 6.54L42.62 6.54Q43.06 5.84 43.41 5.43L43.41 5.43L43.41 5.43Q43.76 5.01 43.99 4.98L43.99 4.98L43.99 4.98Q44.14 5.01 44.32 5.10L44.32 5.10L44.32 5.10Q44.49 5.19 44.65 5.32L44.65 5.32L44.65 5.32Q44.80 5.45 44.93 5.60L44.93 5.60L44.93 5.60Q45.05 5.75 45.12 5.91L45.12 5.91L45.12 5.91Q44.60 6.09 44.01 6.76L44.01 6.76L44.01 6.76Q43.41 7.43 42.81 8.38L42.81 8.38L42.81 8.38Q42.21 9.32 41.64 10.44L41.64 10.44L41.64 10.44Q41.08 11.55 40.62 12.61L40.62 12.61L40.62 12.61Q40.17 13.68 39.84 14.60L39.84 14.60L39.84 14.60Q39.52 15.53 39.41 16.07ZM51.02 14.38L51.02 14.38L51.02 14.38Q51.02 13.87 51.18 13.07L51.18 13.07L51.18 13.07Q51.34 12.26 51.60 11.33L51.60 11.33L51.60 11.33Q51.86 10.40 52.19 9.43L52.19 9.43L52.19 9.43Q52.53 8.46 52.88 7.60L52.88 7.60L52.88 7.60Q53.23 6.75 53.56 6.10L53.56 6.10L53.56 6.10Q53.90 5.46 54.17 5.18L54.17 5.18L54.17 5.18Q54.31 5.19 54.54 5.29L54.54 5.29L54.54 5.29Q54.77 5.38 55.01 5.50L55.01 5.50L55.01 5.50Q55.24 5.63 55.44 5.78L55.44 5.78L55.44 5.78Q55.64 5.92 55.69 6.05L55.69 6.05L55.69 6.05Q55.29 6.41 54.89 7.15L54.89 7.15L54.89 7.15Q54.49 7.88 54.12 8.82L54.12 8.82L54.12 8.82Q53.75 9.76 53.42 10.80L53.42 10.80L53.42 10.80Q53.10 11.84 52.86 12.82L52.86 12.82L52.86 12.82Q52.63 13.80 52.49 14.64L52.49 14.64L52.49 14.64Q52.36 15.48 52.36 16.00L52.36 16.00L52.36 16.00Q52.36 16.24 52.40 16.30L52.40 16.30L52.40 16.30Q52.09 16.28 51.95 16.19L51.95 16.19L51.95 16.19Q51.81 16.10 51.74 16.00L51.74 16.00L51.74 16.00Q51.66 15.89 51.60 15.79L51.60 15.79L51.60 15.79Q51.53 15.68 51.41 15.62L51.41 15.62L51.41 15.62Q51.31 15.58 51.24 15.43L51.24 15.43L51.24 15.43Q51.17 15.27 51.12 15.09L51.12 15.09L51.12 15.09Q51.07 14.90 51.04 14.70L51.04 14.70L51.04 14.70Q51.02 14.50 51.02 14.38ZM71.13 5.74L71.13 5.74L71.13 5.74Q71.18 5.98 71.20 6.07L71.20 6.07L71.20 6.07Q71.22 6.16 71.22 6.31L71.22 6.31L71.22 6.31Q71.22 6.78 71.02 7.18L71.02 7.18L71.02 7.18Q70.81 7.57 70.46 7.74L70.46 7.74L70.46 7.74Q70.18 7.36 69.78 7.09L69.78 7.09L69.78 7.09Q69.37 6.82 68.89 6.64L68.89 6.64L68.89 6.64Q68.40 6.47 67.89 6.38L67.89 6.38L67.89 6.38Q67.37 6.30 66.88 6.30L66.88 6.30L66.88 6.30Q66.39 6.30 65.96 6.38L65.96 6.38L65.96 6.38Q65.53 6.45 65.20 6.59L65.20 6.59L65.20 6.59Q64.88 6.72 64.69 6.92L64.69 6.92L64.69 6.92Q64.50 7.11 64.50 7.36L64.50 7.36L64.50 7.36Q64.54 7.67 64.88 7.99L64.88 7.99L64.88 7.99Q65.21 8.30 65.70 8.60L65.70 8.60L65.70 8.60Q66.19 8.90 66.79 9.20L66.79 9.20L66.79 9.20Q67.38 9.49 67.96 9.76L67.96 9.76L67.96 9.76Q68.67 10.09 69.19 10.38L69.19 10.38L69.19 10.38Q69.71 10.67 70.04 11.01L70.04 11.01L70.04 11.01Q70.38 11.35 70.55 11.79L70.55 11.79L70.55 11.79Q70.71 12.22 70.71 12.84L70.71 12.84L70.71 12.84Q70.71 13.55 70.48 14.18L70.48 14.18L70.48 14.18Q70.24 14.80 69.78 15.26L69.78 15.26L69.78 15.26Q69.33 15.72 68.68 15.98L68.68 15.98L68.68 15.98Q68.04 16.24 67.24 16.24L67.24 16.24L67.24 16.24Q66.46 16.24 65.55 16.00L65.55 16.00L65.55 16.00Q64.64 15.76 63.85 15.35L63.85 15.35L63.85 15.35Q63.06 14.94 62.53 14.40L62.53 14.40L62.53 14.40Q62.01 13.86 62.01 13.26L62.01 13.26L62.01 13.26Q62.01 12.98 62.17 12.54L62.17 12.54L62.17 12.54Q62.33 12.11 62.75 11.63L62.75 11.63L62.75 11.63Q62.79 12.05 63.20 12.63L63.20 12.63L63.20 12.63Q63.62 13.20 64.44 13.69L64.44 13.69L64.44 13.69Q65.21 14.14 66.03 14.34L66.03 14.34L66.03 14.34Q66.85 14.55 67.56 14.55L67.56 14.55L67.56 14.55Q68.35 14.55 68.84 14.35L68.84 14.35L68.84 14.35Q69.33 14.15 69.61 13.88L69.61 13.88L69.61 13.88Q69.89 13.61 70 13.33L70 13.33L70 13.33Q70.11 13.05 70.13 12.88L70.13 12.88L70.13 12.88Q70.11 12.60 69.87 12.34L69.87 12.34L69.87 12.34Q69.62 12.08 69.21 11.84L69.21 11.84L69.21 11.84Q68.80 11.59 68.25 11.34L68.25 11.34L68.25 11.34Q67.70 11.09 67.12 10.84L67.12 10.84L67.12 10.84Q66.23 10.44 65.60 10.10L65.60 10.10L65.60 10.10Q64.96 9.76 64.55 9.40L64.55 9.40L64.55 9.40Q64.13 9.04 63.95 8.65L63.95 8.65L63.95 8.65Q63.76 8.26 63.76 7.76L63.76 7.76L63.76 7.76Q63.76 6.97 64.23 6.27L64.23 6.27L64.23 6.27Q64.71 5.57 65.60 5.21L65.60 5.21L65.60 5.21Q66.05 5.01 66.56 4.93L66.56 4.93L66.56 4.93Q67.07 4.84 67.56 4.84L67.56 4.84L67.56 4.84Q68.49 4.84 69.37 5.10L69.37 5.10L69.37 5.10Q70.25 5.35 71.13 5.74ZM85.29 4.98L85.29 4.98L85.29 4.98Q85.55 5.10 85.83 5.27L85.83 5.27L85.83 5.27Q86.11 5.45 86.35 5.63L86.35 5.63L86.35 5.63Q86.59 5.81 86.75 5.98L86.75 5.98L86.75 5.98Q86.91 6.16 86.93 6.27L86.93 6.27L86.93 6.27Q86.69 6.22 86.45 6.20L86.45 6.20L86.45 6.20Q86.21 6.17 86.02 6.17L86.02 6.17L86.02 6.17Q85.39 6.17 84.76 6.48L84.76 6.48L84.76 6.48Q84.14 6.79 83.58 7.32L83.58 7.32L83.58 7.32Q83.02 7.85 82.54 8.57L82.54 8.57L82.54 8.57Q82.07 9.28 81.72 10.09L81.72 10.09L81.72 10.09Q81.38 10.91 81.19 11.77L81.19 11.77L81.19 11.77Q80.99 12.64 80.99 13.48L80.99 13.48L80.99 13.48Q80.99 14.57 81.35 15.11L81.35 15.11L81.35 15.11Q81.72 15.64 82.42 15.64L82.42 15.64L82.42 15.64Q82.75 15.64 83.15 15.51L83.15 15.51L83.15 15.51Q83.54 15.37 83.94 15.13L83.94 15.13L83.94 15.13Q84.35 14.90 84.74 14.56L84.74 14.56L84.74 14.56Q85.13 14.22 85.47 13.82L85.47 13.82L85.47 13.82Q85.96 13.23 86.35 12.48L86.35 12.48L86.35 12.48Q86.74 11.73 87.02 10.89L87.02 10.89L87.02 10.89Q87.29 10.05 87.44 9.16L87.44 9.16L87.44 9.16Q87.58 8.27 87.58 7.42L87.58 7.42L87.58 7.42Q87.58 7.08 87.57 6.85L87.57 6.85L87.57 6.85Q87.56 6.62 87.53 6.46L87.53 6.46L87.53 6.46Q87.51 6.30 87.50 6.20L87.50 6.20L87.50 6.20Q87.49 6.10 87.47 6.03L87.47 6.03L87.47 6.03Q87.64 6.12 87.84 6.24L87.84 6.24L87.84 6.24Q88.05 6.36 88.22 6.59L88.22 6.59L88.22 6.59Q88.40 6.82 88.52 7.20L88.52 7.20L88.52 7.20Q88.63 7.57 88.63 8.18L88.63 8.18L88.63 8.18Q88.63 9.16 88.40 10.10L88.40 10.10L88.40 10.10Q88.17 11.05 87.76 11.90L87.76 11.90L87.76 11.90Q87.35 12.75 86.79 13.50L86.79 13.50L86.79 13.50Q86.23 14.24 85.58 14.80L85.58 14.80L85.58 14.80Q84.74 15.54 83.79 15.95L83.79 15.95L83.79 15.95Q82.84 16.35 81.96 16.35L81.96 16.35L81.96 16.35Q80.67 16.35 79.99 15.53L79.99 15.53L79.99 15.53Q79.31 14.71 79.31 13.12L79.31 13.12L79.31 13.12Q79.31 12.26 79.50 11.31L79.50 11.31L79.50 11.31Q79.69 10.36 80.03 9.44L80.03 9.44L80.03 9.44Q80.37 8.51 80.85 7.68L80.85 7.68L80.85 7.68Q81.33 6.85 81.89 6.21L81.89 6.21L81.89 6.21Q82.46 5.57 83.11 5.19L83.11 5.19L83.11 5.19Q83.76 4.82 84.45 4.82L84.45 4.82L84.45 4.82Q84.67 4.82 84.87 4.85L84.87 4.85L84.87 4.85Q85.06 4.89 85.29 4.98ZM105.48 7.46L105.48 7.46L105.48 7.46Q105.48 8.13 105.17 8.73L105.17 8.73L105.17 8.73Q104.87 9.32 104.34 9.79L104.34 9.79L104.34 9.79Q103.81 10.26 103.10 10.58L103.10 10.58L103.10 10.58Q102.38 10.91 101.54 11.02L101.54 11.02L101.54 11.02Q101.75 11.65 102.05 12.31L102.05 12.31L102.05 12.31Q102.35 12.98 102.70 13.59L102.70 13.59L102.70 13.59Q103.05 14.21 103.43 14.73L103.43 14.73L103.43 14.73Q103.81 15.25 104.17 15.58L104.17 15.58L104.17 15.58Q104.10 15.72 103.97 15.86L103.97 15.86L103.97 15.86Q103.84 16.00 103.66 16.12L103.66 16.12L103.66 16.12Q103.49 16.24 103.30 16.32L103.30 16.32L103.30 16.32Q103.11 16.39 102.94 16.39L102.94 16.39L102.94 16.39Q102.63 16.39 102.35 16.10L102.35 16.10L102.35 16.10Q102.07 15.81 101.79 15.17L101.79 15.17L101.79 15.17Q101.50 14.53 101.19 13.52L101.19 13.52L101.19 13.52Q100.87 12.50 100.49 11.07L100.49 11.07L100.49 11.07Q100.34 11.07 100.18 11.07L100.18 11.07L100.18 11.07Q100.03 11.07 99.95 11.05L99.95 11.05L99.95 11.05Q99.85 10.99 99.74 10.85L99.74 10.85L99.74 10.85Q99.36 11.66 99.06 12.38L99.06 12.38L99.06 12.38Q98.77 13.09 98.54 13.76L98.54 13.76L98.54 13.76Q98.31 14.42 98.13 15.04L98.13 15.04L98.13 15.04Q97.96 15.67 97.83 16.31L97.83 16.31L97.83 16.31Q97.36 16.20 97.01 15.90L97.01 15.90L97.01 15.90Q96.66 15.61 96.35 15.08L96.35 15.08L96.35 15.08Q96.40 14.95 96.47 14.83L96.47 14.83L96.47 14.83Q96.53 14.71 96.63 14.50L96.63 14.50L96.63 14.50Q96.73 14.28 96.87 13.94L96.87 13.94L96.87 13.94Q97.02 13.61 97.27 13.05L97.27 13.05L97.27 13.05Q97.51 12.49 97.85 11.68L97.85 11.68L97.85 11.68Q98.20 10.86 98.69 9.70L98.69 9.70L98.69 9.70Q98.91 9.18 99.07 8.79L99.07 8.79L99.07 8.79Q99.23 8.40 99.36 8.04L99.36 8.04L99.36 8.04Q99.48 7.69 99.59 7.33L99.59 7.33L99.59 7.33Q99.69 6.97 99.81 6.51L99.81 6.51L99.81 6.51Q99.16 6.73 98.61 7.01L98.61 7.01L98.61 7.01Q98.06 7.28 97.69 7.59L97.69 7.59L97.69 7.59Q97.57 7.50 97.43 7.34L97.43 7.34L97.43 7.34Q97.30 7.17 97.19 6.96L97.19 6.96L97.19 6.96Q97.08 6.76 96.99 6.55L96.99 6.55L96.99 6.55Q96.91 6.34 96.89 6.17L96.89 6.17L96.89 6.17Q97.31 5.89 97.92 5.66L97.92 5.66L97.92 5.66Q98.53 5.42 99.22 5.24L99.22 5.24L99.22 5.24Q99.90 5.07 100.62 4.97L100.62 4.97L100.62 4.97Q101.33 4.87 101.95 4.87L101.95 4.87L101.95 4.87Q103.63 4.87 104.55 5.56L104.55 5.56L104.55 5.56Q105.48 6.26 105.48 7.46ZM101.89 6.02L102.06 6.29L102.06 6.29Q101.96 6.41 101.75 6.79L101.75 6.79L101.75 6.79Q101.54 7.17 101.27 7.69L101.27 7.69L101.27 7.69Q101.00 8.22 100.70 8.83L100.70 8.83L100.70 8.83Q100.39 9.45 100.11 10.05L100.11 10.05L100.11 10.05Q101.16 10.05 102.05 9.86L102.05 9.86L102.05 9.86Q102.93 9.66 103.57 9.30L103.57 9.30L103.57 9.30Q104.22 8.95 104.57 8.46L104.57 8.46L104.57 8.46Q104.93 7.98 104.93 7.39L104.93 7.39L104.93 7.39Q104.93 6.69 104.43 6.32L104.43 6.32L104.43 6.32Q103.92 5.95 102.87 5.95L102.87 5.95L102.87 5.95Q102.63 5.95 102.40 5.97L102.40 5.97L102.40 5.97Q102.16 5.99 101.89 6.02L101.89 6.02Z"></path></g></svg>