<svg data-v-423bf9ae="" xmlns="http://www.w3.org/2000/svg" viewBox="0 0 63.1578947368421 60" class="icon"><!----><!----><!----><!----><g data-v-423bf9ae="" id="a9d19586-b145-4cbe-a888-4b1b6c65c10c" transform="matrix(1.0526315789473684,0,0,1.0526315789473684,-2.1052631610318215,-5.2631578947368425)" stroke="none" fill="white"><path d="M8 26h2v2H8zM12 26h10v2H12zM6 30h16v2H6zM6 34h12v2H6z"></path><path d="M59 44h-7.952l1.614-3.6A26.7 26.7 0 0 0 55 29.53a15.948 15.948 0 0 0-1.684-7.124 13.282 13.282 0 0 0-4.332-4.976l4.43-4.43H58v-2h-5a1 1 0 0 0-.707.293l-5.073 5.073a13.356 13.356 0 0 0-14.162 1.51 15.946 15.946 0 0 1 4.649-10.169l-1.414-1.414a18.051 18.051 0 0 0-3.518 5A10.012 10.012 0 0 0 23.5 5a1 1 0 0 0-1 1 10.011 10.011 0 0 0 8.792 9.92 18.18 18.18 0 0 0-.234 2.041l-.04-.032A13.369 13.369 0 0 0 10.909 22H5a3 3 0 0 0-3 3v12a3 3 0 0 0 3 3h6.173c.056.132.105.268.165.4l4.451 9.912a9.635 9.635 0 0 0 1.346 2.139L12.586 57H8v2h5a1 1 0 0 0 .707-.293l4.853-4.853a9.6 9.6 0 0 0 9.086 1.654L32 54.054l4.354 1.455a9.334 9.334 0 0 0 1.646.366V59a3 3 0 0 0 3 3h18a3 3 0 0 0 3-3V47a3 3 0 0 0-3-3zM24.567 7.071a8.019 8.019 0 0 1 6.858 6.858 8.019 8.019 0 0 1-6.858-6.858zM4 37V25a1 1 0 0 1 1-1h18a1 1 0 0 1 1 1v12a1 1 0 0 1-1 1h-3a1 1 0 0 0-1 1v2.131l-4.445-2.963A1.006 1.006 0 0 0 14 38H5a1 1 0 0 1-1-1zm32.986 16.612l-4.67-1.56a.977.977 0 0 0-.632 0l-4.667 1.558a7.6 7.6 0 0 1-7.032-1.181l4.722-4.722-1.414-1.414-4.733 4.733a7.564 7.564 0 0 1-.948-1.536L13.351 40h.349l5.748 3.832A1 1 0 0 0 21 43v-3h2a3 3 0 0 0 3-3V25a3 3 0 0 0-3-3h-9.763a11.3 11.3 0 0 1 9.423-5 11.427 11.427 0 0 1 7.105 2.49l1.61 1.29a1 1 0 0 0 1.25 0l1.609-1.289A11.349 11.349 0 0 1 45.7 17.886l-4.407 4.407 1.414 1.414 4.848-4.848a11.3 11.3 0 0 1 3.971 4.44A13.947 13.947 0 0 1 53 29.53a24.691 24.691 0 0 1-2.162 10.051l-1.649 3.677-4.634-3.09A1 1 0 0 0 43 41v3h-2a3 3 0 0 0-3 3v6.869a7.416 7.416 0 0 1-1.014-.257zM60 59a1 1 0 0 1-1 1H41a1 1 0 0 1-1-1V47a1 1 0 0 1 1-1h3a1 1 0 0 0 1-1v-2.131l4.445 2.963A1.006 1.006 0 0 0 50 46h9a1 1 0 0 1 1 1z"></path><path d="M54 56h2v2h-2zM42 56h10v2H42zM42 52h16v2H42zM46 48h12v2H46zM4 57h2v2H4zM60 11h2v2h-2z"></path></g><!----></svg>