<?xml version="1.0" standalone="no"?>
<!DOCTYPE svg PUBLIC "-//W3C//DTD SVG 20010904//EN"
 "http://www.w3.org/TR/2001/REC-SVG-20010904/DTD/svg10.dtd">
<svg version="1.0" xmlns="http://www.w3.org/2000/svg"
 width="307.000000pt" height="315.000000pt" viewBox="0 0 307.000000 315.000000"
 preserveAspectRatio="xMidYMid meet">
<metadata>
Created by potrace 1.16, written by Peter Selinger 2001-2019
</metadata>
<g transform="translate(0.000000,315.000000) scale(0.100000,-0.100000)"
fill="#000000" stroke="none">
<path d="M1391 2854 c-302 -55 -542 -216 -698 -468 -118 -191 -170 -421 -143
-633 6 -54 18 -120 25 -148 94 -355 363 -623 722 -722 87 -24 115 -27 253 -27
137 0 166 3 251 26 187 52 338 140 465 270 159 164 234 312 279 548 48 251
-22 538 -187 762 -216 294 -614 456 -967 392z m334 -119 c187 -39 328 -115
460 -249 148 -150 229 -320 256 -535 11 -82 10 -118 0 -193 -19 -130 -34 -180
-91 -298 -104 -216 -326 -402 -550 -462 -183 -49 -307 -48 -500 1 -175 44
-371 186 -482 350 -212 311 -217 690 -13 1001 125 191 336 335 561 385 83 18
275 18 359 0z"/>
<path d="M1634 2625 c-151 -48 -247 -154 -304 -336 -25 -84 -75 -150 -134
-178 -25 -11 -54 -21 -63 -21 -23 0 -94 -25 -142 -49 -110 -57 -211 -210 -211
-322 0 -44 2 -47 113 -156 61 -61 122 -114 134 -117 40 -13 92 28 93 72 1 90
127 212 236 229 140 21 259 135 312 299 28 85 48 123 91 167 35 37 89 68 141
80 39 9 59 29 66 65 7 32 2 38 -118 158 -133 133 -135 134 -214 109z m144
-172 c2 -23 -1 -33 -11 -33 -8 0 -42 -18 -75 -40 -72 -46 -121 -115 -148 -206
-49 -171 -137 -258 -302 -298 -115 -28 -182 -81 -229 -183 -27 -59 -48 -76
-75 -62 -40 22 -6 117 74 205 55 60 137 104 228 124 112 25 178 94 229 240 34
99 67 154 123 207 50 47 118 84 153 81 26 -3 30 -7 33 -35z"/>
<path d="M1848 2111 c-65 -33 -95 -76 -134 -190 -35 -104 -81 -155 -170 -189
-123 -46 -186 -129 -186 -248 0 -83 18 -129 75 -191 52 -56 115 -89 202 -104
203 -35 389 60 481 246 46 92 63 175 64 295 0 150 -32 256 -102 335 -56 65
-154 84 -230 46z m130 -65 c60 -31 94 -90 118 -206 18 -82 18 -138 0 -220 -25
-119 -63 -196 -125 -256 -59 -57 -109 -83 -195 -99 -214 -41 -401 121 -332
286 21 49 64 86 134 113 114 45 160 95 206 226 29 85 49 116 96 148 38 26 60
27 98 8z"/>
<path d="M1679 1647 c-78 -52 -98 -126 -56 -207 60 -120 222 -116 286 7 17 34
13 100 -9 143 -38 75 -151 104 -221 57z"/>
<path d="M1813 704 c-39 -20 -51 -50 -54 -139 -5 -141 0 -190 24 -226 43 -63
129 -61 165 5 13 24 17 57 17 156 0 145 -11 181 -60 204 -41 20 -52 20 -92 0z
m84 -74 c19 -37 17 -213 -2 -250 -20 -39 -52 -39 -67 -2 -16 37 -15 231 1 260
16 30 51 26 68 -8z"/>
<path d="M1140 505 l0 -206 28 3 c27 3 27 4 30 87 3 91 7 91 41 1 34 -88 35
-90 63 -90 16 0 28 5 28 10 0 6 -17 51 -37 101 -35 84 -36 93 -25 134 6 24 23
67 36 97 27 58 26 68 -8 68 -19 0 -28 -11 -47 -57 -46 -115 -48 -116 -51 -27
-3 78 -3 79 -30 82 l-28 3 0 -206z"/>
<path d="M1380 505 l0 -205 71 0 c67 0 70 1 67 23 -2 18 -10 23 -45 25 l-43 3
0 65 0 64 34 0 c68 0 70 55 3 62 -31 3 -32 4 -35 61 l-3 57 46 0 c41 0 45 2
45 25 0 24 -2 25 -70 25 l-70 0 0 -205z"/>
<path d="M1552 688 c2 -17 12 -24 33 -28 l30 -5 3 -178 2 -177 25 0 25 0 2
178 3 177 28 3 c21 3 27 9 27 28 0 24 -1 24 -91 24 -88 0 -90 -1 -87 -22z"/>
</g>
</svg>
