<?xml version="1.0" standalone="no"?>
<!DOCTYPE svg PUBLIC "-//W3C//DTD SVG 20010904//EN"
 "http://www.w3.org/TR/2001/REC-SVG-20010904/DTD/svg10.dtd">
<svg version="1.0" xmlns="http://www.w3.org/2000/svg"
 width="278.000000pt" height="311.000000pt" viewBox="0 0 278.000000 311.000000"
 preserveAspectRatio="xMidYMid meet">
<metadata>
Created by potrace 1.16, written by Peter Selinger 2001-2019
</metadata>
<g transform="translate(0.000000,311.000000) scale(0.100000,-0.100000)"
fill="#000000" stroke="none">
<path d="M1215 2904 c-385 -53 -688 -283 -826 -625 -88 -218 -92 -526 -11
-729 97 -243 275 -441 493 -548 114 -55 190 -78 326 -99 97 -14 130 -15 216
-5 318 36 575 187 744 438 123 181 168 333 168 569 0 162 -4 192 -47 320 -132
394 -500 668 -913 680 -66 2 -133 2 -150 -1z m245 -118 c141 -24 245 -65 363
-145 42 -28 79 -56 83 -62 4 -7 -47 -65 -125 -143 -72 -72 -131 -134 -131
-137 0 -4 25 -14 56 -24 l56 -18 112 112 c61 61 116 111 122 111 36 0 149
-200 190 -335 24 -79 27 -107 27 -235 1 -108 -4 -161 -17 -210 -51 -188 -129
-323 -256 -443 -121 -115 -254 -187 -412 -226 -146 -36 -356 -26 -495 23 -91
32 -269 135 -289 167 -4 7 44 62 115 133 66 67 121 127 121 134 0 6 -11 12
-24 12 -12 0 -38 5 -56 11 -32 12 -32 11 -135 -91 -69 -69 -108 -101 -118 -97
-22 8 -91 113 -132 199 -97 205 -111 448 -39 666 51 152 159 307 282 405 207
165 455 233 702 193z"/>
<path d="M1200 2281 c-207 -21 -393 -98 -516 -214 -57 -53 -78 -81 -94 -123
-63 -169 36 -295 295 -376 110 -35 230 -48 441 -48 326 1 539 53 675 167 40
34 79 116 79 166 0 147 -193 320 -435 390 -121 35 -310 51 -445 38z m235 -63
c24 -11 25 -15 19 -62 -21 -183 -128 -338 -185 -269 -11 12 -14 54 -14 165 0
137 2 151 19 164 24 17 125 19 161 2z m-315 -60 c0 -49 -29 -150 -56 -199 -28
-49 -46 -69 -75 -84 -24 -13 -28 -12 -45 6 -16 18 -20 41 -22 139 l-4 117 29
21 c35 25 85 40 136 41 l37 1 0 -42z m610 -2 c35 -17 46 -28 48 -50 8 -68 -91
-246 -137 -246 -8 0 -23 7 -33 17 -16 14 -18 33 -18 158 0 78 3 145 7 149 12
11 84 -4 133 -28z"/>
<path d="M470 540 l0 -211 72 3 c62 3 73 6 76 22 5 23 -14 36 -55 36 l-33 0
-2 178 -3 177 -27 3 -28 3 0 -211z"/>
<path d="M685 728 c-33 -29 -45 -79 -45 -188 0 -153 30 -210 108 -210 51 0 79
22 93 73 16 56 16 222 0 269 -25 74 -103 101 -156 56z m91 -53 c24 -37 17
-261 -9 -280 -48 -35 -70 19 -65 163 3 109 13 142 44 142 7 0 21 -11 30 -25z"/>
<path d="M875 740 c-3 -5 -4 -13 -1 -18 2 -4 16 -77 30 -162 38 -222 39 -225
62 -228 22 -3 29 18 55 171 16 96 20 88 45 -105 4 -26 13 -53 20 -59 28 -23
41 -1 59 103 9 56 21 123 26 148 5 25 12 71 15 103 7 56 6 57 -18 57 -22 0
-25 -6 -36 -70 -7 -39 -12 -81 -12 -94 0 -13 -6 -29 -14 -36 -12 -9 -16 -5
-20 27 -14 94 -28 159 -36 167 -22 23 -38 -6 -55 -101 -27 -152 -33 -152 -51
2 -4 33 -10 70 -15 83 -9 23 -43 30 -54 12z"/>
<path d="M1402 738 c-46 -23 -65 -82 -65 -203 0 -102 2 -114 26 -152 20 -32
35 -44 61 -48 52 -10 71 -3 74 28 3 24 0 27 -26 27 -62 0 -94 91 -73 209 14
77 27 94 72 94 26 0 30 3 27 26 -3 22 -8 26 -38 28 -19 1 -45 -3 -58 -9z"/>
<path d="M1623 738 c-9 -11 -30 -100 -64 -263 -4 -22 -12 -60 -18 -85 -10 -48
-4 -64 25 -58 12 2 22 17 27 41 8 35 11 37 48 37 34 0 39 -3 45 -27 10 -49 13
-53 39 -53 31 0 31 2 -1 148 -14 64 -30 140 -36 167 -18 84 -24 100 -40 103
-8 2 -19 -3 -25 -10z"/>
<path d="M1795 739 c-3 -8 -4 -102 -3 -209 3 -193 3 -195 25 -198 26 -4 31 12
36 103 1 33 5 53 9 45 3 -8 17 -44 30 -80 21 -57 27 -65 52 -68 34 -4 34 2
-10 119 l-28 75 21 21 c38 38 38 150 -1 182 -23 20 -124 27 -131 10z"/>
<path d="M2020 541 l0 -211 41 0 c53 0 101 23 117 57 18 40 15 97 -8 126 -23
29 -25 44 -7 50 8 2 12 26 12 70 0 86 -19 108 -99 115 l-56 4 0 -211z"/>
</g>
</svg>
