<?xml version="1.0" standalone="no"?>
<!DOCTYPE svg PUBLIC "-//W3C//DTD SVG 20010904//EN"
 "http://www.w3.org/TR/2001/REC-SVG-20010904/DTD/svg10.dtd">
<svg version="1.0" xmlns="http://www.w3.org/2000/svg"
 width="335.000000pt" height="309.000000pt" viewBox="0 0 335.000000 309.000000"
 preserveAspectRatio="xMidYMid meet">
<metadata>
Created by potrace 1.16, written by Peter Selinger 2001-2019
</metadata>
<g transform="translate(0.000000,309.000000) scale(0.100000,-0.100000)"
fill="#000000" stroke="none">
<path d="M1610 2880 c-389 -35 -739 -307 -859 -670 -38 -115 -40 -123 -52
-232 -34 -294 77 -603 293 -815 87 -87 149 -131 259 -186 138 -70 245 -97 409
-104 105 -4 155 -2 220 11 204 41 377 129 515 262 276 267 374 624 276 1004
-50 195 -201 412 -372 538 -196 143 -448 213 -689 192z m195 -116 c56 -6 116
-19 190 -42 82 -25 235 -118 319 -192 51 -46 151 -180 186 -251 55 -108 100
-291 100 -404 0 -104 -37 -267 -85 -370 -111 -243 -325 -423 -590 -496 -97
-27 -327 -33 -410 -10 -244 66 -412 177 -544 362 -86 120 -132 241 -157 406
-15 99 -15 117 0 221 32 222 121 394 281 545 89 84 259 179 375 209 62 16 214
36 245 33 17 -2 57 -7 90 -11z"/>
<path d="M1884 2596 c-35 -55 -44 -160 -19 -243 15 -51 76 -151 102 -166 20
-12 16 -35 -8 -42 -16 -5 -31 5 -74 52 -88 98 -199 143 -348 143 -93 0 -206
-18 -225 -35 -11 -10 -8 -19 19 -50 31 -35 117 -98 169 -122 58 -28 160 -55
227 -62 40 -4 75 -9 78 -12 3 -3 -14 -20 -38 -37 -23 -17 -64 -52 -91 -78
l-49 -47 -44 11 c-64 17 -115 15 -180 -9 -112 -41 -203 -130 -251 -246 -30
-70 -31 -197 -3 -252 25 -49 89 -105 136 -121 53 -17 150 -8 210 20 28 14 80
54 120 94 90 91 120 162 120 281 0 64 -5 89 -24 125 l-24 44 62 58 c60 56 195
150 254 176 l28 12 -6 -62 c-9 -85 -9 -85 -48 -92 -71 -13 -162 -106 -193
-197 -29 -82 -34 -159 -18 -237 23 -114 65 -170 151 -202 102 -38 184 -21 259
55 75 74 98 140 98 275 -1 85 -5 114 -22 152 -22 49 -96 138 -116 138 -6 0
-19 7 -30 15 -17 13 -18 19 -6 82 18 94 31 117 79 133 46 15 62 44 37 68 -14
14 -22 14 -61 4 -25 -7 -50 -12 -55 -12 -6 0 -10 38 -10 91 0 78 -4 98 -27
146 -31 64 -87 130 -131 156 -31 17 -31 17 -48 -7z m-375 -772 c26 -33 26 -60
1 -101 -55 -90 -200 -80 -200 14 0 28 8 44 39 74 35 35 44 39 89 39 43 0 54
-4 71 -26z m466 10 c28 -11 45 -62 32 -98 -33 -97 -157 -102 -157 -6 0 69 68
125 125 104z"/>
<path d="M306 698 c-3 -18 -10 -98 -16 -178 -6 -80 -13 -154 -15 -165 -6 -28
9 -48 31 -43 16 3 21 18 29 90 6 48 13 89 16 93 4 3 14 -33 23 -82 9 -48 20
-91 25 -96 20 -20 40 2 46 50 3 26 10 58 16 71 5 13 9 34 9 47 0 13 5 27 10
30 6 4 10 -18 11 -57 0 -101 11 -142 35 -146 28 -4 33 13 24 78 -5 30 -14 116
-20 190 -6 74 -15 139 -21 145 -18 18 -43 -11 -54 -66 -7 -30 -18 -80 -24
-111 -7 -32 -16 -58 -20 -58 -4 0 -13 35 -21 77 -21 121 -34 158 -57 161 -16
2 -22 -4 -27 -30z"/>
<path d="M607 723 c-4 -3 -7 -98 -7 -210 l0 -203 70 0 70 0 0 29 c0 28 -3 30
-42 33 l-43 3 -3 62 -3 62 43 3 c35 2 43 7 43 23 0 16 -8 21 -40 25 l-40 5 0
60 0 60 43 3 c37 3 42 6 42 28 0 23 -3 24 -63 24 -35 0 -67 -3 -70 -7z"/>
<path d="M797 723 c-4 -3 -7 -98 -7 -211 l0 -205 62 7 c73 9 89 16 114 53 15
23 18 48 18 148 0 139 -13 177 -69 201 -36 14 -107 19 -118 7z m112 -88 c8
-16 16 -66 18 -110 5 -92 -15 -148 -54 -153 -23 -3 -23 -3 -23 148 0 151 0
151 22 148 14 -2 29 -15 37 -33z"/>
<path d="M1040 520 l0 -210 25 0 25 0 0 210 0 210 -25 0 -25 0 0 -210z"/>
<path d="M1130 701 c0 -25 4 -30 28 -33 l27 -3 5 -175 5 -175 27 -3 28 -3 2
177 3 178 25 6 c18 4 25 13 25 30 0 24 -2 25 -87 28 l-88 3 0 -30z"/>
<path d="M1345 708 c-3 -13 -4 -106 -3 -208 l3 -185 73 -3 73 -3 -3 28 c-3 24
-8 29 -43 33 l-40 5 -3 62 -3 62 38 3 c30 2 39 7 41 25 3 19 -2 22 -35 25
l-38 3 0 60 0 60 43 3 c37 3 42 6 42 28 0 23 -2 24 -70 24 -64 0 -70 -2 -75
-22z"/>
<path d="M1542 718 c-8 -8 -12 -67 -12 -199 0 -197 4 -215 47 -207 15 3 19 16
23 78 6 81 6 81 45 -20 18 -47 25 -55 49 -58 34 -4 33 0 -10 118 l-27 75 27
39 c43 63 27 155 -30 176 -35 14 -98 12 -112 -2z"/>
<path d="M1770 519 l0 -210 23 3 c20 3 22 10 27 83 l6 80 21 -45 c12 -25 28
-62 37 -82 10 -26 21 -38 35 -38 32 0 33 14 1 96 -35 92 -36 105 -11 128 25
23 34 76 21 125 -12 46 -54 71 -119 71 l-41 0 0 -211z"/>
<path d="M2072 718 c-6 -7 -18 -49 -27 -93 -22 -102 -31 -144 -50 -229 -16
-74 -14 -86 15 -86 14 0 23 12 31 40 11 37 15 40 49 40 34 0 37 -3 46 -37 6
-24 16 -39 28 -41 32 -7 36 11 21 83 -9 39 -19 88 -24 110 -5 22 -16 75 -25
119 -19 97 -38 125 -64 94z"/>
<path d="M2240 520 l0 -210 25 0 25 0 0 104 c0 59 4 108 10 111 6 3 10 -3 10
-14 0 -11 4 -30 9 -43 12 -30 21 -54 40 -108 13 -37 21 -46 44 -48 l27 -3 -2
208 -3 208 -25 0 c-25 0 -25 -1 -28 -92 -1 -51 -7 -93 -12 -93 -4 0 -23 43
-40 95 -28 85 -34 95 -56 95 l-24 0 0 -210z"/>
<path d="M2497 723 c-4 -3 -7 -98 -7 -210 l0 -203 70 0 70 0 0 29 c0 28 -3 30
-42 33 l-43 3 0 60 0 60 40 5 c32 4 40 9 40 25 0 16 -8 21 -40 25 -38 5 -40 7
-43 44 -6 70 3 86 48 86 36 0 40 3 40 25 0 24 -2 25 -63 25 -35 0 -67 -3 -70
-7z"/>
<path d="M2754 713 c-3 -10 -10 -29 -14 -43 -5 -14 -11 -41 -14 -60 -3 -19
-10 -55 -16 -80 -49 -225 -49 -223 -17 -218 15 2 25 14 33 38 11 32 15 35 50
35 35 0 39 -3 44 -29 6 -33 30 -52 55 -43 11 5 15 13 10 25 -3 9 -10 37 -16
62 -31 156 -59 279 -68 303 -12 30 -39 36 -47 10z"/>
<path d="M2925 718 c-3 -8 -4 -101 -3 -208 l3 -195 25 0 c25 0 25 1 28 98 1
53 6 97 10 97 4 0 18 -35 31 -78 36 -112 41 -122 68 -122 l23 0 -2 208 c-3
206 -3 207 -25 210 -22 3 -23 1 -23 -90 0 -51 -4 -98 -8 -105 -4 -7 -22 30
-43 90 -29 84 -39 103 -57 105 -12 2 -24 -3 -27 -10z"/>
</g>
</svg>
