<?xml version="1.0" standalone="no"?>
<!DOCTYPE svg PUBLIC "-//W3C//DTD SVG 20010904//EN"
 "http://www.w3.org/TR/2001/REC-SVG-20010904/DTD/svg10.dtd">
<svg version="1.0" xmlns="http://www.w3.org/2000/svg"
 width="279.000000pt" height="339.000000pt" viewBox="0 0 279.000000 339.000000"
 preserveAspectRatio="xMidYMid meet">
<metadata>
Created by potrace 1.16, written by Peter Selinger 2001-2019
</metadata>
<g transform="translate(0.000000,339.000000) scale(0.100000,-0.100000)"
fill="#000000" stroke="none">
<path d="M1360 3084 c-222 -18 -463 -129 -622 -288 -140 -139 -222 -282 -274
-481 -24 -88 -27 -381 -5 -460 57 -211 138 -354 275 -491 153 -152 322 -239
541 -280 118 -21 295 -15 415 16 381 98 671 409 746 799 25 134 19 262 -23
461 -12 55 -93 221 -142 293 -115 166 -300 307 -491 375 -119 42 -295 66 -420
56z m163 -114 c122 -17 179 -32 267 -70 85 -36 174 -89 219 -131 l23 -22 -197
-197 c-173 -173 -196 -200 -190 -221 14 -51 28 -79 39 -79 6 0 103 92 216 205
113 113 210 205 216 205 26 0 143 -198 178 -301 50 -150 57 -344 17 -499 -123
-479 -614 -771 -1091 -649 -95 24 -266 109 -322 159 l-43 39 198 198 197 199
-16 47 c-9 26 -20 50 -26 53 -6 4 -103 -86 -217 -200 -113 -113 -211 -206
-218 -206 -28 0 -120 145 -168 265 -41 105 -58 219 -52 355 7 143 25 217 88
347 118 245 342 424 604 482 138 31 185 34 278 21z"/>
<path d="M1143 2663 c-123 -44 -220 -208 -193 -328 24 -106 61 -157 183 -249
80 -60 141 -137 164 -206 7 -19 21 -73 32 -118 34 -144 83 -213 181 -259 199
-94 431 56 430 278 0 98 -50 183 -153 263 -87 66 -148 129 -175 177 -11 20
-32 86 -47 145 -40 170 -81 233 -183 285 -58 29 -175 35 -239 12z m-21 -140
c20 -18 24 -73 7 -104 -23 -44 -88 -45 -108 -3 -16 35 -14 54 9 92 22 37 61
43 92 15z"/>
<path d="M670 706 l0 -206 25 0 25 0 0 110 c0 61 3 110 8 110 4 0 23 -49 42
-108 33 -99 37 -107 63 -110 l27 -3 0 206 0 206 -27 -3 c-28 -3 -28 -3 -31
-90 -1 -49 -6 -88 -10 -88 -4 0 -21 39 -37 88 -27 79 -33 87 -57 90 l-28 3 0
-205z"/>
<path d="M920 731 c0 -165 2 -180 21 -205 17 -22 28 -26 73 -26 87 0 90 7 94
227 l4 184 -29 -3 -28 -3 -3 -166 c-3 -177 -8 -198 -50 -185 -27 9 -32 44 -32
212 l0 144 -25 0 -25 0 0 -179z"/>
<path d="M1140 891 c0 -14 8 -21 28 -23 l27 -3 5 -180 5 -180 27 -3 28 -3 2
183 3 183 28 3 c19 2 27 9 27 23 0 17 -8 19 -90 19 -82 0 -90 -2 -90 -19z"/>
<path d="M1470 705 l0 -205 25 0 c25 0 25 1 25 89 0 97 3 101 61 101 22 0 29
5 29 20 0 19 -11 24 -65 32 -17 3 -21 12 -23 57 -4 62 4 71 62 71 31 0 37 3
32 16 -3 9 -6 18 -6 20 0 2 -31 4 -70 4 l-70 0 0 -205z"/>
<path d="M1654 897 c-2 -7 -3 -98 -2 -202 l3 -190 25 0 c24 0 25 4 30 64 3 36
10 66 16 68 6 2 17 -16 24 -39 24 -76 39 -98 65 -98 31 0 31 6 1 80 -37 91
-40 113 -17 139 12 13 24 39 27 58 8 42 -13 111 -37 124 -27 14 -129 11 -135
-4z"/>
<path d="M1884 897 c-2 -7 -3 -98 -2 -202 l3 -190 73 -3 c71 -3 72 -2 72 22 0
22 -5 25 -42 28 l-43 3 -3 59 c-3 65 4 76 51 76 31 0 48 27 26 41 -8 5 -29 9
-46 9 l-33 0 0 59 c0 64 6 71 61 71 22 0 29 5 29 20 0 18 -7 20 -70 20 -48 0
-72 -4 -76 -13z"/>
<path d="M2076 895 c-3 -9 -6 -99 -6 -201 0 -211 -6 -198 101 -192 46 3 54 6
54 23 0 16 -8 21 -43 23 l-43 3 3 67 3 67 32 3 c30 3 49 24 37 43 -3 5 -21 9
-40 9 l-35 0 3 63 3 62 43 3 c34 3 43 7 40 20 -5 25 -143 31 -152 7z"/>
</g>
</svg>
