<?xml version="1.0" standalone="no"?>
<!DOCTYPE svg PUBLIC "-//W3C//DTD SVG 20010904//EN"
 "http://www.w3.org/TR/2001/REC-SVG-20010904/DTD/svg10.dtd">
<svg version="1.0" xmlns="http://www.w3.org/2000/svg"
 width="269.000000pt" height="303.000000pt" viewBox="0 0 269.000000 303.000000"
 preserveAspectRatio="xMidYMid meet">
<metadata>
Created by potrace 1.16, written by Peter Selinger 2001-2019
</metadata>
<g transform="translate(0.000000,303.000000) scale(0.100000,-0.100000)"
fill="#000000" stroke="none">
<path d="M1141 2794 c-424 -77 -739 -383 -827 -802 -8 -39 -14 -124 -14 -202
0 -156 26 -279 85 -407 135 -292 366 -481 695 -569 94 -25 349 -25 445 0 212
55 356 137 503 288 84 86 118 132 171 238 85 166 116 311 108 500 -5 113 -27
239 -55 305 -95 222 -215 373 -392 492 -211 142 -479 200 -719 157z m336 -118
c310 -66 557 -277 665 -571 43 -115 52 -172 52 -310 -1 -155 -22 -252 -84
-379 -73 -153 -175 -269 -320 -365 -183 -121 -422 -175 -614 -140 -269 50
-479 185 -621 400 -82 125 -117 220 -141 389 -36 252 62 532 256 728 52 53
150 132 164 132 5 0 20 8 34 18 38 27 168 79 238 96 79 19 285 20 371 2z"/>
<path d="M1465 2458 c-173 -33 -336 -193 -374 -368 -6 -30 -16 -80 -22 -110
-22 -110 -41 -154 -84 -200 -47 -50 -66 -93 -58 -134 4 -19 -1 -34 -17 -51
-19 -21 -28 -23 -76 -18 -106 11 -174 -46 -174 -146 0 -75 34 -123 102 -145
10 -3 25 -22 34 -43 22 -54 63 -83 126 -89 70 -7 115 17 146 77 19 36 22 53
17 97 -6 47 -4 57 16 78 18 20 29 23 60 18 42 -7 84 13 129 61 38 41 66 52
206 80 163 32 253 74 335 156 153 153 181 353 74 534 -58 99 -172 178 -293
204 -60 13 -77 12 -147 -1z m20 -134 c47 -62 -27 -164 -118 -164 -41 0 -87 38
-87 73 0 31 38 88 70 105 35 18 117 10 135 -14z m-458 -796 c18 -18 33 -37 33
-43 0 -6 -16 -26 -35 -45 -35 -34 -47 -81 -25 -95 18 -11 11 -68 -12 -92 -45
-48 -128 -14 -128 53 0 36 -21 54 -61 54 -31 0 -69 38 -69 70 0 29 28 65 59
75 11 3 34 -1 50 -9 45 -24 63 -20 106 24 21 22 41 40 44 40 3 0 20 -14 38
-32z"/>
<path d="M1663 650 c-48 -20 -58 -54 -58 -195 0 -147 11 -187 58 -211 36 -19
87 -12 112 16 20 22 45 117 45 174 0 72 -21 167 -44 191 -23 27 -80 39 -113
25z m77 -76 c17 -43 13 -236 -6 -262 -19 -28 -39 -28 -58 0 -20 28 -23 223 -4
263 15 34 55 34 68 -1z"/>
<path d="M807 643 c-9 -8 -9 -366 -1 -387 3 -9 17 -16 30 -16 23 0 24 2 24 85
0 73 3 86 18 91 81 26 97 48 96 130 -2 78 -27 104 -104 104 -31 0 -60 -3 -63
-7z"/>
<path d="M1046 573 c-28 -128 -37 -166 -46 -203 -5 -19 -12 -56 -15 -82 -7
-47 -7 -48 19 -48 20 0 27 6 32 27 11 50 13 53 48 53 33 0 36 -3 46 -40 9 -33
15 -40 35 -40 30 0 31 9 10 105 -8 39 -22 104 -30 145 -29 142 -36 160 -59
160 -20 0 -25 -10 -40 -77z"/>
<path d="M1230 445 l0 -205 71 0 c67 0 70 1 67 23 -2 18 -10 23 -45 25 l-43 3
0 180 0 179 -25 0 -25 0 0 -205z"/>
<path d="M1410 445 l0 -205 71 0 c67 0 70 1 67 23 -2 18 -10 23 -46 25 l-43 3
3 62 c3 53 6 62 23 65 59 9 66 13 63 35 -2 17 -11 23 -43 27 l-40 5 0 55 0 55
43 3 c37 3 42 6 42 28 0 23 -2 24 -70 24 l-70 0 0 -205z"/>
</g>
</svg>
