<?xml version="1.0" standalone="no"?>
<!DOCTYPE svg PUBLIC "-//W3C//DTD SVG 20010904//EN"
 "http://www.w3.org/TR/2001/REC-SVG-20010904/DTD/svg10.dtd">
<svg version="1.0" xmlns="http://www.w3.org/2000/svg"
 width="268.000000pt" height="314.000000pt" viewBox="0 0 268.000000 314.000000"
 preserveAspectRatio="xMidYMid meet">
<metadata>
Created by potrace 1.16, written by Peter Selinger 2001-2019
</metadata>
<g transform="translate(0.000000,314.000000) scale(0.100000,-0.100000)"
fill="#000000" stroke="none">
<path d="M1180 2809 c-82 -7 -97 -10 -217 -45 -250 -74 -466 -257 -595 -505
-43 -83 -63 -142 -88 -258 -81 -380 84 -791 408 -1018 189 -133 383 -189 621
-180 160 6 267 32 401 98 113 56 159 88 253 178 209 200 307 431 307 727 0
118 -4 158 -25 240 -27 108 -26 105 -80 214 -52 106 -110 183 -202 271 -91 87
-147 127 -242 174 -170 84 -356 120 -541 104z m285 -130 c86 -23 113 -32 185
-66 99 -47 151 -83 234 -162 129 -124 206 -256 257 -446 9 -32 14 -104 14
-200 0 -177 -20 -266 -91 -408 -97 -192 -300 -370 -500 -435 -126 -42 -158
-47 -299 -46 -151 1 -237 18 -360 72 -217 95 -407 302 -483 527 -36 108 -46
168 -45 295 0 92 6 147 21 207 74 291 285 526 567 630 150 56 362 69 500 32z"/>
<path d="M1387 2426 c-75 -27 -109 -71 -137 -177 -17 -66 -11 -103 19 -107 30
-5 105 16 151 41 56 30 119 97 151 159 35 69 36 84 7 92 -40 10 -152 6 -191
-8z"/>
<path d="M901 2098 c-24 -12 -68 -45 -96 -74 -103 -105 -122 -273 -53 -469 62
-178 211 -303 403 -340 98 -19 137 -19 233 1 271 56 430 264 432 562 0 81 -4
100 -28 155 -31 68 -93 132 -161 166 -65 33 -172 29 -277 -11 -91 -34 -84 -35
-204 11 -75 29 -188 28 -249 -1z m118 -124 c25 -32 26 -46 6 -84 -28 -54 -109
-78 -147 -43 -31 28 -24 80 18 119 46 44 93 46 123 8z"/>
<path d="M904 647 c-2 -7 -3 -100 -2 -207 l3 -195 28 -3 27 -3 0 68 c0 94 13
109 35 42 29 -88 42 -109 71 -109 30 0 31 -5 -13 116 l-30 81 24 27 c18 22 23
38 23 84 -1 63 -13 86 -54 102 -38 14 -106 13 -112 -3z"/>
<path d="M1205 643 c-3 -10 -11 -38 -16 -63 -5 -25 -18 -88 -30 -140 -11 -52
-24 -115 -30 -139 -10 -49 -2 -65 27 -59 13 2 21 14 24 38 5 33 7 35 46 38 41
3 42 2 51 -35 5 -24 15 -39 27 -41 28 -6 35 9 26 53 -31 157 -63 302 -76 348
-3 9 -14 17 -24 17 -10 0 -21 -8 -25 -17z"/>
<path d="M1333 645 c-3 -9 -1 -35 5 -58 6 -23 16 -76 23 -117 35 -217 42 -239
72 -227 13 5 25 51 42 165 8 50 22 55 30 10 3 -18 11 -64 18 -103 10 -59 16
-70 33 -73 26 -4 25 -7 65 225 31 182 29 211 -9 187 -17 -11 -23 -40 -38 -166
-4 -32 -10 -58 -14 -58 -7 0 -20 63 -35 165 -8 56 -20 73 -42 59 -17 -11 -40
-111 -42 -181 -1 -18 -5 -33 -10 -33 -10 0 -31 77 -31 117 0 54 -19 103 -41
103 -11 0 -22 -7 -26 -15z"/>
</g>
</svg>
