<?xml version="1.0" standalone="no"?>
<!DOCTYPE svg PUBLIC "-//W3C//DTD SVG 20010904//EN"
 "http://www.w3.org/TR/2001/REC-SVG-20010904/DTD/svg10.dtd">
<svg version="1.0" xmlns="http://www.w3.org/2000/svg"
 width="256.000000pt" height="320.000000pt" viewBox="0 0 256.000000 320.000000"
 preserveAspectRatio="xMidYMid meet">
<metadata>
Created by potrace 1.16, written by Peter Selinger 2001-2019
</metadata>
<g transform="translate(0.000000,320.000000) scale(0.100000,-0.100000)"
fill="#000000" stroke="none">
<path d="M1089 2945 c-3 -2 -36 -9 -75 -14 -248 -36 -494 -190 -651 -408 -47
-67 -123 -211 -123 -237 0 -8 -4 -17 -9 -20 -4 -3 -11 -20 -14 -38 -4 -18 -13
-64 -22 -103 -28 -130 -20 -308 23 -475 41 -162 178 -370 317 -483 133 -109
247 -166 425 -213 94 -25 349 -25 445 0 263 69 460 203 607 411 70 99 118 208
159 360 19 67 19 350 0 425 -66 270 -215 485 -436 629 -134 88 -244 131 -402
156 -88 14 -234 20 -244 10z m296 -135 c265 -66 467 -225 597 -471 36 -67 38
-72 69 -184 115 -421 -128 -891 -541 -1048 -216 -82 -372 -87 -594 -21 -367
110 -626 463 -626 854 0 283 123 527 365 720 27 22 54 40 58 40 5 0 21 8 35
18 42 29 129 63 222 88 116 31 300 32 415 4z"/>
<path d="M893 2516 c-83 -29 -158 -60 -167 -69 -11 -10 -16 -34 -16 -70 0 -61
-7 -69 -101 -131 -31 -20 -61 -48 -68 -62 -7 -17 -11 -133 -11 -367 0 -415 -6
-393 122 -426 45 -12 122 -33 170 -47 91 -25 166 -31 196 -14 9 5 67 25 127
45 63 21 117 45 128 57 15 18 17 52 17 388 l0 368 -85 103 c-85 103 -85 104
-85 161 0 31 -3 64 -6 73 -5 13 -55 47 -66 44 -2 0 -71 -24 -155 -53z m145
-68 c-3 -31 -6 -33 -113 -70 -132 -46 -145 -47 -145 -13 0 29 1 29 140 79 120
44 122 44 118 4z m86 -179 c40 -49 55 -74 48 -81 -14 -14 -171 -68 -197 -68
-22 0 -129 123 -123 141 3 10 177 76 203 78 6 1 37 -31 69 -70z m-362 -193
c70 -19 132 -37 138 -41 6 -4 10 -111 10 -316 0 -303 0 -309 -20 -309 -27 0
-206 48 -247 66 l-33 14 0 303 c0 167 3 307 7 310 9 10 4 11 145 -27z m456
-283 l2 -310 -27 -11 c-70 -26 -182 -62 -192 -62 -8 0 -11 94 -11 314 l0 314
63 21 c34 12 80 28 102 36 22 8 45 13 50 11 6 -2 11 -117 13 -313z"/>
<path d="M1541 2549 c-12 -11 -26 -32 -31 -45 -6 -16 -20 -27 -40 -30 -39 -8
-53 -27 -52 -69 2 -56 28 -94 78 -117 25 -11 44 -24 42 -30 -2 -5 -27 -18 -56
-27 -97 -33 -117 -73 -93 -184 5 -23 15 -76 21 -117 15 -91 66 -352 79 -400 6
-19 14 -51 19 -70 16 -62 50 -130 66 -130 47 0 99 182 172 605 41 238 40 217
7 252 -17 18 -43 35 -59 38 -69 15 -80 39 -27 60 48 20 74 56 80 109 6 49 -13
76 -53 76 -19 0 -28 8 -39 34 -16 37 -49 66 -75 66 -9 0 -26 -9 -39 -21z"/>
<path d="M635 791 c-39 -17 -55 -47 -66 -128 -14 -97 -1 -213 29 -252 37 -50
119 -50 150 -1 15 25 37 154 28 175 -4 12 -17 15 -53 13 -42 -3 -48 -6 -51
-26 -3 -17 2 -25 18 -29 18 -5 21 -12 18 -51 -3 -52 -26 -74 -55 -56 -15 10
-18 30 -21 144 -2 89 1 137 9 146 18 21 60 18 66 -6 6 -21 47 -28 58 -10 6 9
-18 65 -33 73 -17 11 -78 16 -97 8z"/>
<path d="M149 783 c-3 -16 3 -52 27 -183 38 -204 43 -220 69 -220 24 0 23 -5
70 237 32 165 32 173 1 173 -25 0 -24 3 -47 -135 -17 -108 -20 -119 -30 -104
-5 8 -9 25 -9 38 0 13 -7 63 -16 112 -15 82 -18 89 -40 89 -13 0 -25 -3 -25
-7z"/>
<path d="M380 585 l0 -206 73 3 c64 3 72 5 72 23 0 16 -8 21 -42 23 l-43 3 0
64 0 64 38 3 c32 3 37 6 37 28 0 22 -5 25 -37 28 l-38 3 0 59 0 59 43 3 c34 2
42 7 42 23 0 18 -8 20 -72 23 l-73 3 0 -206z"/>
<path d="M820 585 l0 -205 76 0 c72 0 75 1 72 23 -2 18 -10 23 -46 25 l-43 3
3 62 3 62 35 5 c29 4 36 10 38 32 3 24 0 27 -35 30 l-38 3 0 55 0 55 40 5 c32
4 41 9 43 28 3 21 0 22 -72 22 l-76 0 0 -205z"/>
<path d="M1000 766 c0 -19 6 -25 28 -28 l27 -3 5 -175 5 -175 27 -3 28 -3 2
178 3 178 28 3 c21 3 27 9 27 28 0 24 -1 24 -90 24 -89 0 -90 0 -90 -24z"/>
<path d="M1250 765 c-5 -14 -10 -34 -10 -44 0 -10 -4 -31 -9 -47 -5 -16 -14
-56 -21 -89 -7 -33 -16 -73 -20 -90 -5 -16 -12 -49 -15 -72 -7 -41 -6 -43 19
-43 27 0 30 3 41 53 5 25 9 28 43 25 34 -3 38 -6 46 -41 9 -33 13 -38 35 -35
28 3 29 6 10 93 -63 302 -65 310 -87 313 -16 3 -25 -4 -32 -23z"/>
<path d="M1420 585 l0 -205 29 0 c35 0 41 13 41 88 0 67 9 61 40 -25 21 -57
25 -63 51 -63 16 0 29 2 29 4 0 5 -29 88 -39 111 -31 72 -31 74 -9 95 33 31
38 135 8 173 -19 24 -28 27 -86 27 l-64 0 0 -205z"/>
<path d="M1654 777 c-2 -7 -3 -98 -2 -202 l3 -190 28 -3 27 -3 0 205 0 206
-25 0 c-14 0 -28 -6 -31 -13z"/>
<path d="M1833 778 c-6 -7 -13 -31 -16 -53 -6 -39 -11 -62 -42 -200 -9 -38
-19 -87 -22 -107 -5 -36 -4 -38 20 -38 22 0 28 6 37 40 10 37 14 40 45 40 31
0 35 -3 46 -40 10 -33 17 -40 37 -40 23 0 24 2 19 43 -4 23 -10 60 -15 82 -5
22 -19 87 -31 145 -12 58 -25 113 -27 123 -6 20 -37 23 -51 5z"/>
<path d="M2000 585 l0 -205 24 0 c32 0 36 14 37 128 0 53 3 90 6 82 2 -8 8
-24 13 -35 5 -11 20 -54 34 -95 23 -70 26 -75 53 -75 l28 0 0 200 0 200 -30 0
-30 0 -3 -82 c-2 -46 -6 -83 -11 -83 -4 0 -18 33 -31 73 -28 87 -35 97 -66 97
l-24 0 0 -205z"/>
</g>
</svg>
