<?xml version="1.0" standalone="no"?>
<!DOCTYPE svg PUBLIC "-//W3C//DTD SVG 20010904//EN"
 "http://www.w3.org/TR/2001/REC-SVG-20010904/DTD/svg10.dtd">
<svg version="1.0" xmlns="http://www.w3.org/2000/svg"
 width="282.000000pt" height="342.000000pt" viewBox="0 0 282.000000 342.000000"
 preserveAspectRatio="xMidYMid meet">
<metadata>
Created by potrace 1.16, written by Peter Selinger 2001-2019
</metadata>
<g transform="translate(0.000000,342.000000) scale(0.100000,-0.100000)"
fill="#000000" stroke="none">
<path d="M1200 3050 c-111 -13 -242 -50 -330 -93 -212 -103 -401 -301 -490
-513 -44 -105 -57 -157 -75 -288 -13 -96 -13 -122 0 -221 47 -362 253 -648
576 -799 128 -60 238 -87 384 -93 292 -13 554 92 762 304 157 161 236 325 282
589 19 103 12 189 -26 354 -64 274 -254 515 -514 652 -162 86 -392 130 -569
108z m193 -110 c130 -19 216 -44 310 -91 66 -34 187 -115 187 -127 0 -4 -54
-61 -120 -127 -66 -66 -120 -126 -120 -133 0 -16 41 -92 49 -92 4 0 65 59 136
130 71 72 135 130 143 130 20 0 128 -173 161 -260 194 -502 -94 -1057 -619
-1191 -66 -17 -114 -22 -215 -22 -153 0 -256 22 -375 80 -82 39 -209 123 -210
137 0 5 45 55 100 111 55 55 100 106 100 112 0 6 -11 30 -24 54 l-25 43 -115
-113 c-79 -78 -120 -112 -130 -108 -20 8 -98 128 -136 210 -66 140 -96 346
-70 491 36 210 113 360 259 507 88 88 170 144 279 190 91 38 120 46 232 63
110 18 118 18 203 6z"/>
<path d="M1230 2601 c-76 -27 -176 -132 -229 -239 -21 -43 -40 -87 -44 -98
-28 -90 -39 -144 -51 -235 -11 -92 -11 -119 1 -190 27 -157 100 -263 217 -318
86 -40 169 -54 237 -41 149 30 240 100 301 230 51 109 64 194 48 316 -30 228
-91 377 -199 485 -103 102 -179 126 -281 90z m48 -156 c21 -46 14 -81 -22
-119 -60 -64 -126 -40 -126 45 0 26 8 47 26 68 21 26 33 31 68 31 36 0 45 -4
54 -25z"/>
<path d="M757 870 c-35 -28 -47 -76 -47 -190 0 -161 26 -210 110 -210 32 0 52
5 62 18 22 25 40 101 36 152 l-3 45 -47 3 c-45 3 -48 2 -48 -21 0 -16 7 -26
20 -30 26 -7 27 -66 2 -98 -23 -27 -48 -21 -62 16 -15 38 -12 225 3 255 16 31
49 32 62 3 10 -24 22 -28 49 -17 24 9 19 32 -13 65 -36 35 -86 39 -124 9z"/>
<path d="M1009 867 c-38 -32 -49 -76 -49 -193 0 -152 28 -204 111 -204 68 0
88 30 92 137 l2 78 -47 3 c-45 3 -48 2 -48 -21 0 -16 7 -26 20 -30 29 -7 28
-77 -1 -103 -48 -43 -73 24 -66 179 3 74 8 102 21 115 19 19 44 9 61 -25 8
-16 14 -18 33 -10 25 11 27 19 10 50 -27 52 -94 63 -139 24z"/>
<path d="M524 867 c-2 -7 -3 -98 -2 -202 l3 -190 70 0 c64 0 70 2 73 22 3 19
-2 22 -40 25 l-43 3 -3 59 c-3 65 4 76 51 76 24 0 28 4 25 23 -2 18 -10 23
-40 25 l-38 3 0 59 c0 63 6 70 61 70 22 0 29 5 29 20 0 18 -7 20 -70 20 -48 0
-72 -4 -76 -13z"/>
<path d="M1332 678 l3 -203 27 -3 27 -3 3 93 3 93 38 3 c69 6 59 52 -11 52
l-33 0 3 63 3 62 43 3 c34 3 42 7 42 23 0 17 -7 19 -75 19 l-75 0 2 -202z"/>
<path d="M1525 868 c-3 -8 -4 -99 -3 -203 l3 -190 25 0 c24 0 25 3 30 79 l5
80 17 -35 c10 -19 26 -55 37 -81 14 -33 26 -48 39 -48 10 0 21 3 25 6 3 4 -7
43 -24 87 -35 97 -35 100 -7 137 28 39 29 110 1 148 -17 23 -28 27 -82 30 -44
2 -63 -1 -66 -10z"/>
<path d="M1752 678 l3 -203 73 -3 c71 -3 72 -2 72 22 0 22 -5 25 -42 28 l-43
3 0 65 0 65 38 3 c33 3 38 6 35 25 -2 18 -11 23 -41 25 l-38 3 3 62 3 62 43 3
c34 3 42 7 42 23 0 17 -7 19 -75 19 l-75 0 2 -202z"/>
<path d="M1950 675 l0 -206 73 3 c64 3 72 5 72 23 0 16 -8 21 -43 23 l-43 3 3
67 3 67 33 3 c26 3 32 7 32 28 0 21 -5 24 -35 24 l-36 0 3 63 3 62 43 3 c34 3
43 7 40 20 -3 14 -17 18 -76 20 l-72 3 0 -206z"/>
</g>
</svg>
