<?xml version="1.0" standalone="no"?>
<!DOCTYPE svg PUBLIC "-//W3C//DTD SVG 20010904//EN"
 "http://www.w3.org/TR/2001/REC-SVG-20010904/DTD/svg10.dtd">
<svg version="1.0" xmlns="http://www.w3.org/2000/svg"
 width="290.000000pt" height="341.000000pt" viewBox="0 0 290.000000 341.000000"
 preserveAspectRatio="xMidYMid meet">
<metadata>
Created by potrace 1.16, written by Peter Selinger 2001-2019
</metadata>
<g transform="translate(0.000000,341.000000) scale(0.100000,-0.100000)"
fill="#000000" stroke="none">
<path d="M1315 3215 c-268 -37 -495 -157 -654 -346 -107 -127 -165 -238 -212
-404 -20 -69 -23 -104 -24 -250 0 -173 4 -199 47 -330 22 -66 96 -211 137
-265 51 -70 176 -191 242 -235 81 -54 197 -115 221 -115 9 0 19 -4 22 -8 3 -5
40 -16 83 -25 205 -43 244 -45 391 -21 326 52 591 238 744 520 142 263 158
592 43 864 -130 307 -407 536 -725 598 -73 15 -196 32 -212 31 -7 -1 -53 -7
-103 -14z m255 -119 c102 -20 189 -49 263 -88 66 -34 161 -100 173 -119 4 -7
-44 -62 -117 -135 l-123 -123 21 -23 c11 -13 24 -33 28 -45 3 -13 9 -23 13
-23 4 0 65 58 136 129 72 72 133 128 138 125 16 -10 86 -111 111 -160 82 -161
102 -245 102 -424 -1 -105 -5 -153 -22 -215 -41 -154 -110 -279 -217 -393
-175 -185 -401 -282 -656 -282 -94 1 -143 8 -262 38 -60 16 -163 68 -243 123
-87 60 -87 54 9 149 36 35 66 71 66 79 0 21 -31 101 -39 101 -4 0 -47 -40 -96
-90 -49 -49 -95 -90 -103 -90 -14 0 -109 141 -140 210 -67 146 -93 310 -74
474 19 168 77 311 180 446 199 257 546 395 852 336z"/>
<path d="M1439 2928 c-16 -18 -41 -57 -56 -85 -32 -67 -30 -154 6 -223 26 -51
69 -100 87 -100 18 0 79 77 99 125 25 60 23 150 -5 205 -32 62 -70 110 -87
110 -8 0 -28 -15 -44 -32z"/>
<path d="M1140 2586 c0 -94 21 -160 67 -208 34 -35 120 -68 178 -68 l45 0 0
65 c0 83 -31 156 -90 209 -47 42 -136 86 -175 86 -25 0 -25 -1 -25 -84z"/>
<path d="M1630 2537 c-122 -59 -179 -144 -180 -263 0 -70 12 -79 90 -63 82 16
140 56 175 121 25 45 28 63 29 137 l1 86 -35 2 c-20 1 -55 -7 -80 -20z"/>
<path d="M1094 2296 c-10 -25 4 -110 27 -173 41 -107 120 -164 232 -167 84 -1
91 4 83 71 -17 147 -130 259 -283 279 -44 5 -54 4 -59 -10z"/>
<path d="M1720 2210 c-97 -20 -180 -80 -225 -161 -24 -45 -29 -66 -29 -124
l-1 -70 50 -3 c76 -5 132 15 186 67 38 38 51 59 68 117 23 79 27 154 9 172 -7
7 -14 11 -17 11 -4 -1 -22 -5 -41 -9z"/>
<path d="M1015 1960 c-17 -27 22 -189 61 -251 31 -50 96 -103 143 -117 21 -7
73 -12 115 -12 l76 0 0 55 c0 66 -39 160 -90 218 -43 50 -157 104 -236 112
-43 5 -64 4 -69 -5z"/>
<path d="M1720 1859 c-159 -44 -262 -162 -276 -317 l-7 -69 33 -6 c50 -10 140
3 190 28 53 27 90 65 119 120 24 46 54 182 49 222 -3 24 -8 28 -38 30 -19 1
-51 -3 -70 -8z"/>
<path d="M391 1054 c-39 -28 -51 -73 -51 -193 0 -164 24 -211 105 -211 72 0
93 31 97 145 l3 70 -47 3 c-45 3 -48 2 -48 -21 0 -16 7 -26 20 -30 29 -7 28
-77 -1 -103 -26 -24 -50 -10 -62 37 -13 50 -5 233 12 253 20 24 40 20 58 -13
15 -25 20 -27 40 -18 26 12 27 17 12 50 -21 45 -94 62 -138 31z"/>
<path d="M600 855 l0 -205 70 0 c68 0 70 1 70 24 0 22 -5 25 -42 28 l-43 3 -3
178 -2 177 -25 0 -25 0 0 -205z"/>
<path d="M777 1053 c-10 -9 -8 -267 2 -326 10 -59 31 -76 94 -77 88 0 100 34
95 265 l-3 140 -27 3 -28 3 0 -161 c0 -167 -7 -200 -40 -200 -33 0 -40 33 -40
199 l0 161 -23 0 c-13 0 -27 -3 -30 -7z"/>
<path d="M1000 1041 c0 -14 8 -21 28 -23 l27 -3 5 -180 5 -180 27 -3 28 -3 2
183 3 183 33 3 c25 3 32 8 30 20 -3 14 -18 17 -96 20 -86 3 -92 1 -92 -17z"/>
<path d="M1215 1048 c-3 -8 -4 -99 -3 -203 l3 -190 75 0 c68 0 75 2 75 20 0
16 -8 21 -45 25 l-45 5 0 65 0 65 38 3 c33 3 38 6 35 25 -2 17 -11 23 -40 25
l-38 3 0 59 c0 64 6 70 67 70 27 0 34 4 31 18 -3 14 -16 18 -76 20 -53 2 -74
-1 -77 -10z"/>
<path d="M1412 858 c3 -202 3 -203 26 -206 21 -3 22 -1 22 90 0 51 4 99 8 106
5 7 21 -26 43 -90 31 -94 36 -103 59 -103 l25 0 3 203 2 203 -27 -3 -28 -3 -3
-92 c-1 -51 -6 -93 -10 -93 -4 0 -20 42 -37 93 -28 84 -32 92 -58 95 l-27 3 2
-203z"/>
<path d="M1780 855 l0 -205 25 0 c25 0 25 1 25 89 0 95 3 101 56 101 28 0 44
28 23 41 -8 5 -29 9 -46 9 l-33 0 0 59 c0 64 6 71 61 71 22 0 29 5 29 20 0 18
-7 20 -70 20 l-70 0 0 -205z"/>
<path d="M1962 858 l3 -203 30 0 30 0 3 68 c2 37 7 67 12 67 6 0 10 -7 10 -15
0 -8 11 -39 24 -70 18 -40 30 -55 45 -55 11 0 22 4 26 9 3 6 -10 50 -30 98
-35 85 -35 88 -17 103 31 25 45 82 32 129 -14 54 -41 71 -112 71 l-58 0 2
-202z"/>
<path d="M2200 855 l0 -205 70 0 c68 0 70 1 70 24 0 22 -5 25 -42 28 l-43 3
-3 59 c-3 64 4 76 49 76 30 0 48 28 27 42 -7 4 -28 8 -45 8 l-33 0 0 59 c0 64
6 71 61 71 22 0 29 5 29 20 0 18 -7 20 -70 20 l-70 0 0 -205z"/>
<path d="M2384 1047 c-2 -7 -3 -98 -2 -202 l3 -190 69 -3 c72 -3 91 4 80 31
-4 10 -20 17 -47 19 l-42 3 0 65 0 65 38 3 c33 3 38 6 35 25 -2 18 -11 23 -41
25 l-38 3 3 62 3 62 48 3 c39 3 48 6 43 18 -3 9 -6 18 -6 20 0 2 -32 4 -70 4
-48 0 -72 -4 -76 -13z"/>
</g>
</svg>
