<?xml version="1.0" standalone="no"?>
<!DOCTYPE svg PUBLIC "-//W3C//DTD SVG 20010904//EN"
 "http://www.w3.org/TR/2001/REC-SVG-20010904/DTD/svg10.dtd">
<svg version="1.0" xmlns="http://www.w3.org/2000/svg"
 width="284.000000pt" height="331.000000pt" viewBox="0 0 284.000000 331.000000"
 preserveAspectRatio="xMidYMid meet">
<metadata>
Created by potrace 1.16, written by Peter Selinger 2001-2019
</metadata>
<g transform="translate(0.000000,331.000000) scale(0.100000,-0.100000)"
fill="#000000" stroke="none">
<path d="M1255 3000 c-127 -13 -276 -62 -390 -129 -264 -154 -436 -403 -494
-717 -13 -73 -15 -253 -2 -303 5 -20 17 -70 26 -111 21 -92 98 -255 159 -336
107 -143 226 -241 386 -317 125 -60 237 -87 382 -94 339 -16 646 129 854 403
30 40 54 74 54 77 0 3 15 31 33 64 73 132 107 275 107 461 0 138 -13 223 -52
337 -78 228 -258 435 -479 553 -176 93 -382 133 -584 112z m202 -110 c127 -18
218 -46 323 -101 85 -45 170 -104 170 -119 0 -6 -63 -74 -140 -151 l-139 -141
32 -39 c17 -21 37 -39 42 -39 6 0 73 63 149 140 77 78 144 139 150 137 31 -10
139 -193 169 -288 38 -116 42 -147 42 -299 -1 -146 -2 -161 -32 -255 -75 -236
-236 -425 -457 -535 -145 -72 -231 -93 -391 -94 -125 0 -156 4 -281 40 -103
30 -304 149 -304 179 0 8 45 58 100 112 l101 98 -3 79 -3 79 -144 -143 -144
-144 -33 40 c-72 86 -140 232 -174 374 -21 87 -17 289 8 387 73 286 271 515
542 623 71 29 107 38 210 54 110 18 115 18 207 6z"/>
<path d="M1197 2622 c-24 -26 -21 -47 8 -70 20 -16 25 -29 25 -66 0 -45 -2
-49 -82 -127 l-83 -79 -3 -413 c-2 -226 0 -427 3 -445 4 -23 16 -39 38 -52 29
-18 52 -20 269 -20 l238 0 32 29 33 29 3 409 c1 224 0 419 -3 432 -4 14 -44
64 -91 111 -77 79 -84 90 -84 126 0 31 6 46 25 62 27 23 33 60 13 80 -8 8 -60
12 -168 12 -139 0 -159 -2 -173 -18z m81 -278 c32 -22 29 -68 -7 -105 -34 -34
-63 -37 -91 -9 -24 24 -24 30 -5 75 20 50 64 67 103 39z"/>
<path d="M414 817 c-2 -7 -3 -98 -2 -202 l3 -190 47 -3 c25 -2 62 4 82 12 52
22 66 64 66 198 0 117 -10 153 -52 182 -28 20 -136 22 -144 3z m110 -56 c28
-31 42 -138 27 -205 -12 -53 -42 -92 -63 -80 -4 3 -8 72 -8 155 0 158 5 173
44 130z"/>
<path d="M706 753 c-9 -43 -21 -96 -26 -118 -5 -22 -14 -65 -21 -95 -6 -30
-15 -68 -20 -83 -6 -21 -5 -29 6 -33 30 -12 50 1 55 36 5 37 22 47 65 36 16
-4 25 -16 29 -41 6 -28 11 -35 31 -35 13 0 26 3 28 8 2 4 -6 54 -19 112 -13
58 -28 130 -35 160 -26 125 -28 130 -53 130 -22 0 -26 -7 -40 -77z"/>
<path d="M890 624 l0 -205 28 3 27 3 3 203 2 202 -30 0 -30 0 0 -206z"/>
<path d="M1012 628 c3 -202 3 -203 26 -206 21 -3 22 0 23 55 1 32 4 69 8 83 6
21 11 13 37 -55 26 -71 33 -80 57 -83 15 -2 27 1 27 6 0 6 -14 49 -31 96 -30
82 -31 87 -15 105 39 43 42 140 5 180 -16 17 -32 21 -80 21 l-59 0 2 -202z"/>
<path d="M1226 758 c14 -40 29 -82 33 -93 5 -11 14 -33 20 -48 6 -15 11 -66
11 -112 0 -84 0 -85 25 -85 25 0 25 1 25 83 0 63 7 105 31 182 46 148 46 145
16 145 -31 0 -39 -14 -57 -93 -7 -31 -16 -54 -19 -51 -3 3 -15 36 -27 72 -19
63 -22 67 -52 70 l-32 3 26 -73z"/>
<path d="M1560 625 l0 -205 25 0 c25 0 25 1 25 89 0 97 3 101 61 101 22 0 29
5 29 20 0 19 -11 24 -65 32 -17 3 -21 12 -23 57 -4 62 4 71 62 71 31 0 37 3
32 16 -3 9 -6 18 -6 20 0 2 -31 4 -70 4 l-70 0 0 -205z"/>
<path d="M1744 817 c-2 -7 -3 -98 -2 -202 l3 -190 30 0 30 0 3 68 c2 37 6 67
10 67 4 0 19 -30 33 -67 22 -58 30 -68 53 -71 14 -2 26 1 26 6 0 5 -14 46 -30
92 -27 76 -31 120 -11 120 12 0 31 48 31 79 0 38 -26 97 -45 105 -31 11 -125
7 -131 -7z"/>
<path d="M1980 625 l0 -205 70 0 c68 0 70 1 70 24 0 22 -5 25 -42 28 l-43 3
-3 59 c-3 65 4 76 51 76 31 0 48 27 26 41 -8 5 -29 9 -46 9 l-33 0 0 59 c0 64
6 71 61 71 22 0 29 5 29 20 0 18 -7 20 -70 20 l-70 0 0 -205z"/>
<path d="M2180 625 l0 -205 70 0 c68 0 70 1 70 24 0 22 -5 25 -42 28 l-43 3
-3 59 c-3 65 4 76 51 76 31 0 48 27 26 41 -8 5 -29 9 -46 9 l-33 0 0 59 c0 64
6 71 61 71 22 0 29 5 29 20 0 18 -7 20 -70 20 l-70 0 0 -205z"/>
</g>
</svg>
