<?xml version="1.0" standalone="no"?>
<!DOCTYPE svg PUBLIC "-//W3C//DTD SVG 20010904//EN"
 "http://www.w3.org/TR/2001/REC-SVG-20010904/DTD/svg10.dtd">
<svg version="1.0" xmlns="http://www.w3.org/2000/svg"
 width="265.000000pt" height="302.000000pt" viewBox="0 0 265.000000 302.000000"
 preserveAspectRatio="xMidYMid meet">
<metadata>
Created by potrace 1.16, written by Peter Selinger 2001-2019
</metadata>
<g transform="translate(0.000000,302.000000) scale(0.100000,-0.100000)"
fill="#000000" stroke="none">
<path d="M1100 2844 c-71 -8 -255 -67 -324 -104 -245 -128 -413 -325 -500
-585 -75 -225 -70 -451 16 -675 110 -284 347 -508 638 -600 81 -26 227 -50
300 -50 64 0 224 25 291 44 324 96 599 379 684 702 9 33 22 105 30 161 13 90
13 116 0 210 -25 186 -71 312 -166 452 -130 194 -334 346 -544 406 -33 10 -71
21 -84 26 -25 10 -284 20 -341 13z m270 -119 c151 -28 248 -66 349 -134 118
-81 125 -56 -69 -250 -94 -93 -170 -173 -170 -177 0 -11 62 -74 72 -74 4 0 82
74 173 165 91 91 171 165 179 165 38 0 168 -239 194 -355 6 -27 16 -71 22 -97
13 -61 13 -176 -1 -252 -38 -213 -112 -358 -254 -502 -177 -179 -380 -264
-632 -264 -160 0 -292 32 -420 102 -72 39 -163 105 -163 118 0 6 70 80 155
164 l154 154 -38 43 -38 43 -157 -157 c-86 -86 -161 -157 -166 -157 -15 0 -86
100 -123 175 -70 141 -97 253 -97 407 0 146 22 243 87 388 154 342 578 565
943 495z"/>
<path d="M944 2385 c-33 -35 -61 -44 -81 -24 -17 17 -115 22 -143 7 -56 -30
-72 -112 -38 -204 11 -30 9 -34 -25 -67 -68 -63 -40 -137 63 -168 50 -15 66
-8 74 33 26 136 138 249 284 288 37 9 42 14 42 40 0 74 -44 130 -103 130 -32
0 -46 -6 -73 -35z"/>
<path d="M1087 2199 c-95 -22 -171 -82 -219 -172 -20 -37 -23 -57 -23 -157 0
-112 1 -117 37 -192 62 -126 165 -211 310 -252 170 -48 336 22 406 174 46 99
39 260 -15 349 -74 120 -99 146 -193 199 -96 54 -209 73 -303 51z m64 -86 c25
-15 29 -24 29 -59 0 -57 -34 -98 -95 -113 -78 -20 -125 19 -111 93 14 74 112
117 177 79z"/>
<path d="M1671 1654 c-36 -141 -160 -262 -291 -284 -34 -6 -35 -7 -32 -45 4
-52 27 -92 65 -115 40 -24 62 -19 106 27 l34 36 46 -17 c86 -31 165 -14 190
41 16 35 13 103 -7 148 l-18 39 43 41 c49 47 55 78 22 119 -24 30 -78 56 -119
56 -25 0 -29 -5 -39 -46z"/>
<path d="M680 687 c-46 -23 -60 -70 -60 -197 0 -100 3 -122 23 -160 l22 -45
60 0 60 0 23 45 c19 37 22 60 22 148 0 129 -13 178 -54 203 -36 22 -61 24 -96
6z m83 -87 c5 -19 7 -80 5 -137 -3 -111 -16 -141 -56 -129 -25 8 -32 43 -32
162 0 116 10 147 47 142 21 -2 29 -10 36 -38z"/>
<path d="M1040 687 c-34 -17 -63 -79 -55 -117 4 -17 29 -56 56 -88 26 -31 51
-69 54 -84 12 -54 -27 -84 -76 -57 -19 10 -20 8 -17 -23 3 -33 3 -33 58 -33
51 0 56 2 77 34 13 19 23 48 23 66 0 34 -41 105 -84 144 -36 34 -38 98 -2 107
14 3 34 3 45 -1 18 -5 21 -2 21 19 0 42 -50 58 -100 33z"/>
<path d="M1500 687 c-41 -21 -55 -62 -58 -182 -6 -172 20 -225 108 -225 32 0
52 5 62 18 20 24 38 91 38 145 0 50 -8 57 -66 57 -29 0 -34 -3 -34 -24 0 -17
7 -26 25 -30 21 -5 24 -10 18 -39 -12 -62 -22 -79 -45 -75 -35 5 -48 44 -48
149 0 116 12 159 46 159 14 0 28 -9 35 -22 16 -32 15 -31 38 -18 29 15 26 36
-8 71 -32 32 -69 37 -111 16z"/>
<path d="M370 485 l0 -205 30 0 30 0 0 94 c0 52 4 97 8 100 5 3 23 -40 41 -95
29 -89 35 -99 57 -99 l24 0 0 205 0 205 -25 0 -25 0 0 -100 c0 -55 -3 -100 -7
-100 -5 0 -19 35 -32 78 -37 116 -40 122 -73 122 l-28 0 0 -205z"/>
<path d="M1200 511 c0 -165 2 -180 21 -205 17 -22 28 -26 73 -26 87 0 90 7 94
226 l3 184 -30 0 -31 0 -2 -177 -3 -178 -24 -3 c-13 -2 -28 2 -32 10 -5 7 -9
81 -9 165 0 83 -3 158 -6 167 -3 9 -17 16 -30 16 l-24 0 0 -179z"/>
<path d="M1757 683 c-8 -14 -87 -369 -87 -390 0 -7 11 -13 25 -13 19 0 26 7
31 27 10 41 23 53 56 53 29 0 32 -3 42 -52 5 -23 12 -28 36 -28 17 0 30 1 30
3 0 1 -7 34 -16 72 -9 39 -19 88 -24 110 -42 210 -47 225 -70 225 -10 0 -21
-3 -23 -7z"/>
<path d="M1924 677 c-2 -7 -3 -98 -2 -202 l3 -190 28 -3 27 -3 0 80 c0 47 4
81 10 81 6 0 10 -7 10 -15 0 -8 4 -23 9 -33 6 -9 17 -38 27 -64 15 -43 20 -48
46 -48 33 0 33 1 -8 104 -29 72 -29 84 -4 116 14 18 20 41 20 83 0 48 -4 62
-25 82 -20 21 -34 25 -80 25 -36 0 -57 -5 -61 -13z"/>
</g>
</svg>
