<?xml version="1.0" standalone="no"?>
<!DOCTYPE svg PUBLIC "-//W3C//DTD SVG 20010904//EN"
 "http://www.w3.org/TR/2001/REC-SVG-20010904/DTD/svg10.dtd">
<svg version="1.0" xmlns="http://www.w3.org/2000/svg"
 width="260.000000pt" height="324.000000pt" viewBox="0 0 260.000000 324.000000"
 preserveAspectRatio="xMidYMid meet">
<metadata>
Created by potrace 1.16, written by Peter Selinger 2001-2019
</metadata>
<g transform="translate(0.000000,324.000000) scale(0.100000,-0.100000)"
fill="#000000" stroke="none">
<path d="M1130 2834 c-401 -73 -711 -357 -813 -744 -87 -333 0 -676 238 -938
131 -143 297 -240 515 -298 100 -27 348 -25 457 4 277 72 508 246 641 482 70
125 104 228 127 393 12 87 12 115 0 206 -35 260 -118 435 -290 607 -140 141
-284 224 -460 268 -158 38 -279 44 -415 20z m368 -125 c207 -51 400 -180 518
-345 46 -65 127 -227 138 -279 55 -241 44 -399 -41 -598 -86 -204 -264 -383
-465 -469 -161 -68 -340 -93 -482 -67 -353 66 -613 283 -719 599 -38 112 -47
170 -47 293 1 407 272 756 670 861 129 34 302 36 428 5z"/>
<path d="M1593 2428 c-52 -58 -62 -139 -24 -203 20 -34 21 -40 7 -53 -14 -14
-20 -13 -58 15 -103 73 -185 71 -239 -5 -14 -20 -70 -98 -124 -172 -84 -115
-234 -338 -309 -460 -12 -19 -38 -66 -58 -105 -79 -155 -53 -188 91 -118 153
75 639 398 779 517 33 29 34 32 30 92 -3 46 -11 72 -31 103 -32 48 -31 45 -12
65 14 14 20 14 53 -4 83 -45 197 -7 217 71 5 19 0 33 -19 56 l-25 30 19 50
c16 42 17 56 8 81 -20 51 -68 64 -138 36 -40 -16 -42 -16 -64 5 -30 28 -77 27
-103 -1z m-177 -293 c13 -20 14 -30 4 -60 -14 -42 -44 -65 -86 -65 -64 0 -80
73 -26 122 41 36 85 38 108 3z"/>
<path d="M1225 693 c-58 -15 -78 -78 -73 -224 4 -129 22 -173 77 -190 25 -7
44 -7 63 0 43 16 58 49 61 137 l2 79 -47 3 c-46 3 -48 2 -48 -23 0 -18 6 -29
20 -32 15 -4 20 -14 20 -40 0 -64 -39 -96 -70 -58 -16 19 -25 194 -13 250 7
33 13 41 36 43 20 3 29 -2 38 -21 14 -32 59 -26 59 7 0 45 -70 83 -125 69z"/>
<path d="M730 674 c0 -17 54 -301 68 -359 6 -23 13 -30 31 -30 22 0 25 7 42
95 33 167 40 204 50 241 14 57 12 69 -16 69 -20 0 -26 -7 -33 -37 -17 -69 -32
-159 -32 -186 0 -40 -17 -33 -23 11 -15 111 -27 179 -33 195 -8 22 -54 23 -54
1z"/>
<path d="M967 683 c-9 -8 -9 -366 -1 -387 9 -23 139 -23 148 0 10 26 -2 34
-50 34 l-44 0 0 65 0 65 34 0 c68 0 70 55 3 62 -31 3 -32 4 -35 61 l-3 57 44
0 c44 0 66 18 51 41 -6 10 -137 12 -147 2z"/>
<path d="M1467 683 c-3 -5 -19 -72 -36 -150 -17 -77 -33 -147 -35 -155 -2 -7
-7 -32 -10 -56 -6 -43 -6 -43 21 -40 22 2 29 9 31 30 4 34 24 50 59 46 22 -2
29 -10 36 -40 8 -34 13 -38 39 -38 26 0 29 3 25 22 -3 13 -20 88 -37 168 -43
207 -48 220 -70 220 -10 0 -21 -3 -23 -7z"/>
<path d="M1630 485 l0 -205 30 0 30 0 0 94 c0 52 4 97 8 100 4 2 23 -40 42
-95 32 -94 35 -99 62 -99 l28 0 0 205 0 205 -30 0 -30 0 0 -100 c0 -55 -3
-100 -7 -100 -5 0 -19 35 -32 78 -37 116 -40 122 -73 122 l-28 0 0 -205z"/>
</g>
</svg>
