<?xml version="1.0" encoding="UTF-8"?>
<svg xmlns="http://www.w3.org/2000/svg" xmlns:xlink="http://www.w3.org/1999/xlink" width="1500pt" height="1500pt" viewBox="0 0 1500 1500" version="1.1">
<defs>
<linearGradient id="linear0" gradientUnits="userSpaceOnUse" x1="0" y1="0" x2="1" y2="0" gradientTransform="matrix(133.383016,38.872626,-62.197522,83.362615,510.847656,393.164062)">
<stop offset="0" style="stop-color:rgb(0.392157%,39.215686%,54.509804%);stop-opacity:1;"/>
<stop offset="1" style="stop-color:rgb(35.686275%,81.568627%,64.313725%);stop-opacity:1;"/>
</linearGradient>
<linearGradient id="linear1" gradientUnits="userSpaceOnUse" x1="0" y1="0" x2="1" y2="0" gradientTransform="matrix(500.182771,221.577434,-233.239057,475.174341,474.054688,200)">
<stop offset="0" style="stop-color:rgb(0.392157%,39.215686%,54.509804%);stop-opacity:1;"/>
<stop offset="1" style="stop-color:rgb(35.686275%,81.568627%,64.313725%);stop-opacity:1;"/>
</linearGradient>
<linearGradient id="linear2" gradientUnits="userSpaceOnUse" x1="0" y1="0" x2="1" y2="0" gradientTransform="matrix(483.511664,186.592566,-225.465192,400.149049,492.449219,255.1875)">
<stop offset="0" style="stop-color:rgb(0.392157%,39.215686%,54.509804%);stop-opacity:1;"/>
<stop offset="1" style="stop-color:rgb(35.686275%,81.568627%,64.313725%);stop-opacity:1;"/>
</linearGradient>
</defs>
<g id="surface1">
<rect x="0" y="0" width="1500" height="1500" style="fill:rgb(100%,100%,100%);fill-opacity:1;stroke:none;"/>
<path style=" stroke:none;fill-rule:nonzero;fill:rgb(0%,0%,0%);fill-opacity:1;" d="M 129.867188 1128.222656 C 107.097656 1128.222656 87.046875 1123.835938 69.710938 1115.0625 C 52.378906 1106.082031 39.113281 1093.550781 29.925781 1077.46875 C 20.523438 1061.386719 15.824219 1042.796875 15.824219 1021.703125 L 15.824219 920.507812 C 15.824219 899.410156 20.523438 880.820312 29.925781 864.738281 C 39.113281 848.65625 52.378906 836.230469 69.710938 827.457031 C 87.046875 818.683594 107.097656 814.296875 129.867188 814.296875 C 152.421875 814.296875 172.265625 818.476562 189.390625 826.832031 C 206.308594 835.183594 219.574219 846.984375 229.179688 862.234375 C 238.578125 877.6875 243.28125 895.441406 243.28125 915.492188 C 243.28125 918.207031 240.980469 919.878906 236.386719 920.507812 L 189.390625 923.324219 L 187.824219 923.324219 C 183.648438 923.324219 181.558594 922.59375 181.558594 921.132812 L 181.558594 918.625 C 181.558594 903.171875 176.859375 890.742188 167.460938 881.34375 C 157.855469 871.945312 145.320312 867.246094 129.867188 867.246094 C 113.992188 867.246094 101.355469 871.945312 91.957031 881.34375 C 82.347656 890.742188 77.546875 903.171875 77.546875 918.625 L 77.546875 1024.207031 C 77.546875 1039.453125 82.347656 1051.777344 91.957031 1061.175781 C 101.355469 1070.574219 113.992188 1075.273438 129.867188 1075.273438 C 145.320312 1075.273438 157.855469 1070.574219 167.460938 1061.175781 C 176.859375 1051.777344 181.558594 1039.453125 181.558594 1024.207031 C 181.558594 1022.746094 182.1875 1021.597656 183.441406 1020.761719 C 184.902344 1019.71875 186.78125 1019.300781 189.078125 1019.507812 L 236.074219 1021.703125 C 240.878906 1022.328125 243.28125 1023.058594 243.28125 1023.894531 L 243.28125 1026.085938 C 243.28125 1046.347656 238.578125 1064.207031 229.179688 1079.660156 C 219.574219 1095.117188 206.308594 1107.128906 189.390625 1115.691406 C 172.265625 1124.046875 152.421875 1128.222656 129.867188 1128.222656 Z M 402.121094 895.757812 C 425.515625 895.757812 444.417969 902.960938 458.828125 917.375 C 473.03125 931.578125 480.132812 951 480.132812 975.648438 L 480.132812 1117.257812 C 480.132812 1122.269531 477.730469 1124.777344 472.925781 1124.777344 L 425.929688 1124.777344 C 420.917969 1124.777344 418.414062 1122.269531 418.414062 1117.257812 L 418.414062 988.492188 C 418.414062 976.796875 415.175781 967.292969 408.699219 959.980469 C 402.226562 952.671875 393.660156 949.015625 383.011719 949.015625 C 372.148438 949.015625 363.375 952.671875 356.691406 959.980469 C 349.800781 967.292969 346.355469 976.796875 346.355469 988.492188 L 346.355469 1117.257812 C 346.355469 1122.269531 343.953125 1124.777344 339.148438 1124.777344 L 292.152344 1124.777344 C 287.140625 1124.777344 284.632812 1122.269531 284.632812 1117.257812 L 284.632812 825.265625 C 284.632812 820.25 287.140625 817.746094 292.152344 817.746094 L 339.148438 817.746094 C 343.953125 817.746094 346.355469 820.25 346.355469 825.265625 L 346.355469 918.941406 C 346.355469 920.191406 346.667969 920.925781 347.292969 921.132812 C 347.921875 921.550781 348.546875 921.34375 349.171875 920.507812 C 361.078125 904.007812 378.726562 895.757812 402.121094 895.757812 Z M 614.851562 895.757812 C 633.855469 895.757812 650.878906 899.097656 665.917969 905.78125 C 680.746094 912.257812 692.339844 921.238281 700.691406 932.726562 C 709.046875 944.003906 713.226562 956.746094 713.226562 970.949219 L 713.226562 1117.257812 C 713.226562 1122.269531 710.71875 1124.777344 705.707031 1124.777344 L 658.710938 1124.777344 C 653.699219 1124.777344 651.191406 1122.269531 651.191406 1117.257812 L 651.191406 1106.917969 C 651.191406 1105.664062 650.984375 1104.933594 650.566406 1104.726562 C 649.9375 1104.726562 649.207031 1105.144531 648.371094 1105.976562 C 634.796875 1120.808594 614.746094 1128.222656 588.21875 1128.222656 C 565.660156 1128.222656 547.492188 1122.6875 533.707031 1111.617188 C 519.921875 1100.546875 513.027344 1084.152344 513.027344 1062.429688 C 513.027344 1039.871094 520.964844 1022.433594 536.839844 1010.109375 C 552.710938 997.578125 575.269531 991.3125 604.511719 991.3125 L 648.6875 991.3125 C 650.355469 991.3125 651.191406 990.476562 651.191406 988.804688 L 651.191406 979.71875 C 651.191406 969.902344 648.269531 962.28125 642.417969 956.847656 C 636.363281 951.628906 627.589844 949.015625 616.101562 949.015625 C 607.332031 949.015625 600.125 950.480469 594.484375 953.402344 C 588.847656 956.328125 584.980469 960.398438 582.894531 965.621094 C 581.222656 969.589844 578.296875 971.46875 574.121094 971.261719 L 525.558594 964.996094 C 523.054688 964.785156 521.175781 964.160156 519.921875 963.113281 C 518.667969 962.070312 518.144531 960.714844 518.355469 959.042969 C 519.816406 946.929688 524.933594 936.066406 533.707031 926.460938 C 542.269531 916.851562 553.652344 909.332031 567.855469 903.902344 C 582.058594 898.472656 597.722656 895.757812 614.851562 895.757812 Z M 606.078125 1082.167969 C 618.609375 1082.167969 629.261719 1078.824219 638.035156 1072.140625 C 646.804688 1065.457031 651.191406 1056.789062 651.191406 1046.136719 L 651.191406 1030.785156 C 651.191406 1029.117188 650.355469 1028.28125 648.6875 1028.28125 L 617.667969 1028.28125 C 604.511719 1028.28125 594.066406 1030.785156 586.339844 1035.800781 C 578.820312 1040.8125 575.0625 1047.808594 575.0625 1056.789062 C 575.0625 1064.726562 577.878906 1070.992188 583.519531 1075.589844 C 589.160156 1079.976562 596.679688 1082.167969 606.078125 1082.167969 Z M 764.605469 1124.777344 C 759.59375 1124.777344 757.085938 1122.269531 757.085938 1117.257812 L 757.085938 825.265625 C 757.085938 820.25 759.59375 817.746094 764.605469 817.746094 L 811.285156 817.746094 C 816.300781 817.746094 818.804688 820.25 818.804688 825.265625 L 818.804688 1117.257812 C 818.804688 1122.269531 816.300781 1124.777344 811.285156 1124.777344 Z M 974.203125 1076.214844 C 993.417969 1075.171875 1008.140625 1068.382812 1018.375 1055.851562 C 1020.257812 1053.761719 1022.136719 1052.71875 1024.015625 1052.71875 C 1025.894531 1052.71875 1027.566406 1053.449219 1029.027344 1054.910156 L 1054.09375 1079.035156 C 1055.761719 1080.914062 1056.597656 1082.691406 1056.597656 1084.359375 C 1056.597656 1086.449219 1055.972656 1088.226562 1054.71875 1089.6875 C 1045.109375 1101.59375 1032.789062 1110.992188 1017.75 1117.882812 C 1002.710938 1124.777344 986.316406 1128.222656 968.5625 1128.222656 C 941.617188 1128.222656 919.269531 1121.328125 901.515625 1107.542969 C 883.761719 1093.96875 871.859375 1075.171875 865.800781 1051.152344 C 862.25 1038.203125 860.472656 1024.625 860.472656 1010.421875 C 860.472656 993.296875 862.144531 978.882812 865.488281 967.1875 C 871.335938 945.675781 883.03125 928.339844 900.578125 915.179688 C 918.328125 902.023438 939.320312 895.441406 963.550781 895.441406 C 992.164062 895.441406 1014.929688 903.902344 1031.847656 920.820312 C 1048.558594 937.738281 1059.417969 961.546875 1064.429688 992.25 C 1065.683594 1001.859375 1066.625 1012.511719 1067.25 1024.207031 C 1067.25 1029.21875 1064.746094 1031.726562 1059.730469 1031.726562 L 925.015625 1031.726562 C 923.34375 1031.726562 922.507812 1032.667969 922.507812 1034.546875 C 923.34375 1040.605469 924.28125 1045.09375 925.328125 1048.019531 C 928.25 1057 934.097656 1063.890625 942.871094 1068.695312 C 951.433594 1073.707031 961.878906 1076.214844 974.203125 1076.214844 Z M 962.609375 949.015625 C 953.417969 949.015625 945.691406 951.210938 939.425781 955.597656 C 932.949219 960.191406 928.5625 966.5625 926.265625 974.707031 C 924.804688 980.347656 923.96875 984 923.761719 985.671875 C 923.34375 987.550781 924.074219 988.492188 925.953125 988.492188 L 1000.519531 988.492188 C 1001.980469 988.492188 1002.710938 987.867188 1002.710938 986.613281 C 1002.710938 983.480469 1002.085938 980.136719 1000.832031 976.585938 C 998.324219 968.023438 993.835938 961.234375 987.359375 956.222656 C 980.886719 951.417969 972.636719 949.015625 962.609375 949.015625 Z M 1236.746094 906.722656 C 1236.746094 901.707031 1239.25 899.203125 1244.261719 899.203125 L 1291.257812 899.203125 C 1296.269531 899.203125 1298.777344 901.707031 1298.777344 906.722656 L 1298.777344 1117.257812 C 1298.777344 1122.269531 1296.269531 1124.777344 1291.257812 1124.777344 L 1244.261719 1124.777344 C 1239.25 1124.777344 1236.746094 1122.269531 1236.746094 1117.257812 L 1236.746094 1105.351562 C 1236.746094 1104.308594 1236.429688 1103.679688 1235.804688 1103.472656 C 1234.96875 1103.261719 1234.34375 1103.679688 1233.925781 1104.726562 C 1222.4375 1120.179688 1204.371094 1127.910156 1179.722656 1127.910156 C 1157.585938 1127.910156 1139.308594 1121.121094 1124.898438 1107.542969 C 1110.695312 1094.175781 1103.59375 1075.378906 1103.59375 1051.152344 L 1103.59375 906.722656 C 1103.59375 901.707031 1106.097656 899.203125 1111.113281 899.203125 L 1157.480469 899.203125 C 1162.492188 899.203125 1165 901.707031 1165 906.722656 L 1165 1035.800781 C 1165 1047.496094 1168.132812 1057 1174.398438 1064.308594 C 1180.664062 1071.621094 1189.332031 1075.273438 1200.402344 1075.273438 C 1210.425781 1075.273438 1218.675781 1072.246094 1225.152344 1066.191406 C 1231.417969 1060.132812 1235.28125 1052.300781 1236.746094 1042.691406 Z M 1456.679688 896.382812 C 1466.078125 896.382812 1473.804688 898.054688 1479.863281 901.394531 C 1483.414062 903.273438 1484.769531 906.40625 1483.9375 910.792969 L 1475.476562 956.847656 C 1475.269531 959.355469 1474.433594 960.921875 1472.96875 961.546875 C 1471.71875 962.175781 1469.628906 962.175781 1466.703125 961.546875 C 1462.109375 960.503906 1457.828125 959.980469 1453.859375 959.980469 C 1451.980469 959.980469 1448.636719 960.191406 1443.832031 960.609375 C 1433.390625 961.652344 1424.511719 965.515625 1417.203125 972.199219 C 1409.894531 979.09375 1406.238281 988.28125 1406.238281 999.769531 L 1406.238281 1117.257812 C 1406.238281 1122.269531 1403.730469 1124.777344 1398.71875 1124.777344 L 1351.722656 1124.777344 C 1346.710938 1124.777344 1344.207031 1122.269531 1344.207031 1117.257812 L 1344.207031 906.722656 C 1344.207031 901.707031 1346.710938 899.203125 1351.722656 899.203125 L 1398.71875 899.203125 C 1403.730469 899.203125 1406.238281 901.707031 1406.238281 906.722656 L 1406.238281 920.507812 C 1406.238281 921.550781 1406.550781 922.28125 1407.179688 922.699219 C 1407.59375 922.910156 1408.328125 922.59375 1409.371094 921.757812 C 1421.066406 904.839844 1436.835938 896.382812 1456.679688 896.382812 Z M 1456.679688 896.382812 "/>
<path style=" stroke:none;fill-rule:nonzero;fill:url(#linear0);" d="M 529.242188 393.164062 L 547.640625 393.164062 L 547.640625 411.558594 L 529.242188 411.558594 Z M 566.035156 393.164062 L 658.019531 393.164062 L 658.019531 411.558594 L 566.035156 411.558594 Z M 510.847656 429.957031 L 658.019531 429.957031 L 658.019531 448.351562 L 510.847656 448.351562 Z M 510.847656 466.75 L 621.226562 466.75 L 621.226562 485.144531 L 510.847656 485.144531 Z M 510.847656 466.75 "/>
<path style=" stroke:none;fill-rule:nonzero;fill:url(#linear1);" d="M 998.351562 558.730469 L 925.207031 558.730469 L 940.054688 525.617188 C 954.160156 494.167969 961.488281 460.101562 961.558594 425.632812 C 961.546875 402.882812 956.242188 380.449219 946.070312 360.105469 C 936.847656 341.738281 923.144531 325.996094 906.222656 314.332031 L 946.972656 273.585938 L 989.152344 273.585938 L 989.152344 255.1875 L 943.164062 255.1875 C 940.722656 255.191406 938.382812 256.160156 936.660156 257.882812 L 889.996094 304.546875 C 847.523438 283.707031 796.855469 289.109375 759.730469 318.4375 C 762.230469 283.117188 777.417969 249.894531 802.496094 224.898438 L 789.488281 211.894531 C 776.164062 225.273438 765.222656 240.824219 757.128906 257.882812 C 743.167969 222.988281 709.402344 200.078125 671.816406 200 C 666.734375 200 662.617188 204.117188 662.617188 209.199219 C 662.695312 255.660156 697.371094 294.789062 743.488281 300.445312 C 742.417969 306.65625 741.699219 312.925781 741.335938 319.21875 L 740.96875 318.925781 C 712.519531 296.15625 675.441406 287.179688 639.730469 294.40625 C 604.019531 301.636719 573.351562 324.332031 556 356.371094 L 501.648438 356.371094 C 486.40625 356.371094 474.054688 368.722656 474.054688 383.964844 L 474.054688 494.34375 C 474.054688 509.582031 486.40625 521.9375 501.648438 521.9375 L 558.429688 521.9375 C 558.945312 523.152344 559.394531 524.402344 559.945312 525.617188 L 600.886719 616.789062 C 604.132812 623.863281 608.296875 630.480469 613.269531 636.464844 L 571.425781 678.308594 L 529.242188 678.308594 L 529.242188 696.703125 L 575.234375 696.703125 C 577.671875 696.703125 580.011719 695.734375 581.738281 694.007812 L 626.375 649.371094 C 649.804688 668.386719 681.324219 674.125 709.949219 664.582031 L 750 651.210938 L 790.050781 664.59375 C 794.984375 666.167969 800.050781 667.296875 805.1875 667.960938 L 805.1875 696.703125 C 805.1875 711.945312 817.542969 724.296875 832.785156 724.296875 L 998.351562 724.296875 C 1013.59375 724.296875 1025.945312 711.945312 1025.945312 696.703125 L 1025.945312 586.324219 C 1025.945312 571.085938 1013.59375 558.730469 998.351562 558.730469 Z M 681.628906 219.050781 C 714.429688 223.539062 740.222656 249.328125 744.710938 282.132812 C 711.910156 277.644531 686.117188 251.851562 681.628906 219.050781 Z M 492.449219 494.34375 L 492.449219 383.964844 C 492.449219 378.882812 496.566406 374.765625 501.648438 374.765625 L 667.214844 374.765625 C 672.296875 374.765625 676.414062 378.882812 676.414062 383.964844 L 676.414062 494.34375 C 676.414062 499.421875 672.296875 503.542969 667.214844 503.542969 L 639.621094 503.542969 C 634.542969 503.542969 630.421875 507.660156 630.421875 512.738281 L 630.421875 532.339844 L 589.535156 505.085938 C 588.023438 504.082031 586.25 503.542969 584.433594 503.542969 L 501.648438 503.542969 C 496.566406 503.542969 492.449219 499.421875 492.449219 494.34375 Z M 795.863281 647.144531 L 752.90625 632.792969 C 751.023438 632.152344 748.976562 632.152344 747.09375 632.792969 L 704.164062 647.125 C 682.136719 654.472656 657.902344 650.402344 639.484375 636.261719 L 682.917969 592.828125 L 669.910156 579.824219 L 626.375 623.359375 C 622.914062 619.011719 619.988281 614.269531 617.65625 609.230469 L 578.460938 521.9375 L 581.671875 521.9375 L 634.542969 557.183594 C 637.367188 559.054688 640.984375 559.222656 643.96875 557.621094 C 646.949219 556.023438 648.8125 552.917969 648.820312 549.53125 L 648.820312 521.9375 L 667.214844 521.9375 C 682.457031 521.9375 694.8125 509.582031 694.8125 494.34375 L 694.8125 383.964844 C 694.8125 368.722656 682.457031 356.371094 667.214844 356.371094 L 577.414062 356.371094 C 596.796875 327.507812 629.324219 310.25 664.089844 310.378906 C 687.835938 310.410156 710.871094 318.484375 729.441406 333.28125 L 744.25 345.148438 C 747.613281 347.839844 752.386719 347.839844 755.75 345.148438 L 770.550781 333.292969 C 800.363281 309.460938 840.804688 303.796875 876.015625 318.527344 L 835.480469 359.066406 L 848.484375 372.070312 L 893.078125 327.476562 C 908.6875 337.578125 921.300781 351.683594 929.605469 368.316406 C 938.507812 386.113281 943.148438 405.734375 943.164062 425.632812 C 943.09375 457.503906 936.320312 489.003906 923.277344 518.082031 L 908.109375 551.90625 L 865.484375 523.484375 C 862.660156 521.601562 859.03125 521.421875 856.039062 523.023438 C 853.046875 524.625 851.179688 527.742188 851.179688 531.136719 L 851.179688 558.730469 L 832.785156 558.730469 C 817.542969 558.730469 805.1875 571.085938 805.1875 586.324219 L 805.1875 649.507812 C 802.027344 648.941406 798.910156 648.152344 795.863281 647.144531 Z M 1007.550781 696.703125 C 1007.550781 701.785156 1003.433594 705.902344 998.351562 705.902344 L 832.785156 705.902344 C 827.703125 705.902344 823.585938 701.785156 823.585938 696.703125 L 823.585938 586.324219 C 823.585938 581.246094 827.703125 577.128906 832.785156 577.128906 L 860.378906 577.128906 C 865.457031 577.128906 869.578125 573.007812 869.578125 567.929688 L 869.578125 548.328125 L 910.464844 575.582031 C 911.976562 576.585938 913.75 577.125 915.566406 577.128906 L 998.351562 577.128906 C 1003.433594 577.128906 1007.550781 581.246094 1007.550781 586.324219 Z M 1007.550781 696.703125 "/>
<path style=" stroke:none;fill-rule:nonzero;fill:url(#linear2);" d="M 952.359375 669.109375 L 970.757812 669.109375 L 970.757812 687.507812 L 952.359375 687.507812 Z M 841.980469 669.109375 L 933.964844 669.109375 L 933.964844 687.507812 L 841.980469 687.507812 Z M 841.980469 632.316406 L 989.152344 632.316406 L 989.152344 650.714844 L 841.980469 650.714844 Z M 878.773438 595.523438 L 989.152344 595.523438 L 989.152344 613.921875 L 878.773438 613.921875 Z M 492.449219 678.308594 L 510.847656 678.308594 L 510.847656 696.703125 L 492.449219 696.703125 Z M 1007.550781 255.1875 L 1025.945312 255.1875 L 1025.945312 273.585938 L 1007.550781 273.585938 Z M 1007.550781 255.1875 "/>
<path style=" stroke:none;fill-rule:nonzero;fill:rgb(0%,0%,0%);fill-opacity:1;" d="M 211.894531 1298.421875 C 207.191406 1297.019531 203.929688 1295.648438 202.105469 1294.316406 C 200.28125 1292.914062 199.371094 1291.195312 199.371094 1289.160156 C 199.371094 1287.546875 199.824219 1285.335938 200.738281 1282.527344 C 201.648438 1279.652344 202.949219 1276.28125 204.632812 1272.421875 C 206.386719 1268.566406 208.457031 1264.25 210.84375 1259.476562 C 213.226562 1254.777344 215.964844 1249.722656 219.050781 1244.320312 C 216.457031 1244.25 214.140625 1244.179688 212.105469 1244.109375 C 210.140625 1244.039062 208.527344 1244.003906 207.261719 1244.003906 C 207.824219 1242.53125 209.472656 1241.269531 212.210938 1240.214844 C 214.945312 1239.164062 218.59375 1238.214844 223.15625 1237.375 C 226.945312 1230.988281 231.050781 1224.917969 235.472656 1219.164062 C 239.820312 1213.339844 244.207031 1208.007812 248.628906 1203.167969 C 253.046875 1198.324219 257.46875 1194.046875 261.890625 1190.328125 C 266.308594 1186.675781 270.519531 1183.765625 274.519531 1181.589844 C 274.660156 1180.890625 274.765625 1180.292969 274.835938 1179.800781 C 274.835938 1179.308594 274.835938 1178.960938 274.835938 1178.75 C 276.238281 1178.75 278.097656 1179.097656 280.414062 1179.800781 C 282.730469 1180.503906 284.976562 1181.34375 287.148438 1182.328125 C 289.394531 1183.308594 291.359375 1184.292969 293.042969 1185.273438 C 294.796875 1186.328125 295.746094 1187.203125 295.886719 1187.90625 C 292.660156 1193.589844 289.464844 1202.113281 286.308594 1213.480469 C 283.222656 1224.847656 280.625 1238.425781 278.519531 1254.214844 C 278.027344 1258.144531 277.605469 1262.601562 277.257812 1267.582031 C 276.90625 1272.632812 276.730469 1278.246094 276.730469 1284.421875 C 276.730469 1286.597656 276.730469 1288.808594 276.730469 1291.054688 C 276.730469 1293.300781 276.835938 1295.648438 277.046875 1298.105469 C 276.835938 1298.246094 276.660156 1298.316406 276.519531 1298.316406 C 276.308594 1298.316406 275.886719 1298.316406 275.257812 1298.316406 C 273.921875 1298.316406 272.34375 1298.070312 270.519531 1297.578125 C 268.695312 1297.15625 266.941406 1296.632812 265.257812 1296 C 263.503906 1295.367188 262.03125 1294.667969 260.835938 1293.894531 C 259.574219 1293.054688 258.800781 1292.351562 258.519531 1291.789062 C 258.382812 1290.527344 258.3125 1289.265625 258.3125 1288 C 258.3125 1286.808594 258.3125 1285.511719 258.3125 1284.105469 C 258.3125 1278.003906 258.554688 1271.828125 259.046875 1265.582031 C 259.46875 1259.265625 260.207031 1252.777344 261.257812 1246.109375 C 259.925781 1246.039062 258.136719 1245.898438 255.890625 1245.691406 C 253.574219 1245.550781 251.046875 1245.445312 248.3125 1245.375 C 245.503906 1245.304688 242.488281 1245.164062 239.261719 1244.953125 C 236.101562 1244.8125 232.980469 1244.707031 229.894531 1244.636719 C 227.578125 1249.058594 225.367188 1253.441406 223.261719 1257.792969 C 221.226562 1262.214844 219.472656 1266.636719 218 1271.054688 C 216.316406 1275.757812 214.945312 1280.457031 213.894531 1285.160156 C 212.910156 1289.859375 212.246094 1294.28125 211.894531 1298.421875 Z M 268.835938 1209.902344 C 269.1875 1208.5 269.644531 1206.605469 270.203125 1204.21875 C 270.765625 1201.765625 271.292969 1199.238281 271.785156 1196.640625 C 269.328125 1197.484375 266.589844 1199.097656 263.574219 1201.484375 C 260.554688 1203.800781 257.46875 1206.710938 254.3125 1210.21875 C 251.082031 1213.726562 247.855469 1217.65625 244.628906 1222.007812 C 241.332031 1226.359375 238.136719 1230.988281 235.050781 1235.902344 C 243.328125 1235.269531 252.734375 1234.847656 263.257812 1234.636719 C 264.03125 1230.496094 264.871094 1226.394531 265.785156 1222.324219 C 266.695312 1218.253906 267.714844 1214.113281 268.835938 1209.902344 Z M 383.457031 1279.582031 C 384.929688 1276.351562 386.683594 1272.179688 388.71875 1267.054688 C 390.824219 1261.933594 393 1256.390625 395.246094 1250.425781 C 397.492188 1244.53125 399.804688 1238.460938 402.191406 1232.21875 C 404.507812 1225.972656 406.71875 1220.042969 408.824219 1214.429688 C 410.859375 1208.816406 412.648438 1203.800781 414.191406 1199.378906 C 415.734375 1194.957031 416.820312 1191.589844 417.453125 1189.273438 C 411.277344 1191.800781 405.980469 1195.660156 401.558594 1200.851562 C 397.140625 1206.042969 393.804688 1212.570312 391.5625 1220.429688 C 389.316406 1219.65625 387.246094 1218.253906 385.351562 1216.21875 C 383.527344 1214.253906 382.300781 1211.726562 381.667969 1208.640625 C 382.648438 1204.148438 384.507812 1200.042969 387.246094 1196.324219 C 389.914062 1192.605469 393.316406 1189.414062 397.457031 1186.746094 C 401.59375 1184.082031 406.367188 1182.046875 411.769531 1180.644531 C 417.171875 1179.167969 422.960938 1178.433594 429.136719 1178.433594 C 436.996094 1178.433594 444.222656 1179.589844 450.820312 1181.90625 C 457.414062 1184.222656 463.0625 1187.449219 467.765625 1191.589844 C 472.464844 1195.730469 476.148438 1200.675781 478.816406 1206.429688 C 481.480469 1212.253906 482.816406 1218.710938 482.816406 1225.796875 C 482.816406 1235.410156 481.027344 1244.601562 477.449219 1253.371094 C 473.9375 1262.074219 469.167969 1269.757812 463.132812 1276.421875 C 457.097656 1283.160156 450.082031 1288.492188 442.082031 1292.421875 C 434.152344 1296.421875 425.804688 1298.421875 417.03125 1298.421875 C 408.964844 1298.421875 402.050781 1296.84375 396.296875 1293.683594 C 390.613281 1290.457031 386.332031 1285.753906 383.457031 1279.582031 Z M 435.453125 1185.800781 C 430.539062 1185.800781 425.875 1186.503906 421.453125 1187.90625 C 425.804688 1189.449219 429.382812 1191.097656 432.1875 1192.851562 C 435.066406 1194.535156 437.03125 1195.871094 438.082031 1196.851562 C 437.3125 1197.976562 436.152344 1199.90625 434.609375 1202.640625 C 433.136719 1205.378906 431.382812 1208.710938 429.347656 1212.640625 C 427.3125 1216.570312 425.171875 1220.886719 422.925781 1225.585938 C 420.679688 1230.21875 418.472656 1234.988281 416.296875 1239.902344 C 410.683594 1252.390625 406.648438 1262.214844 404.191406 1269.371094 C 401.664062 1276.527344 400.402344 1281.511719 400.402344 1284.316406 C 401.804688 1284.808594 403.488281 1285.125 405.453125 1285.265625 C 407.417969 1285.476562 409.523438 1285.582031 411.769531 1285.582031 C 419.699219 1285.582031 427.242188 1283.757812 434.398438 1280.105469 C 441.484375 1276.386719 447.695312 1271.441406 453.027344 1265.265625 C 458.433594 1259.089844 462.675781 1251.898438 465.765625 1243.691406 C 468.851562 1235.480469 470.394531 1226.847656 470.394531 1217.796875 C 470.394531 1207.691406 467.238281 1199.835938 460.921875 1194.222656 C 454.679688 1188.605469 446.1875 1185.800781 435.453125 1185.800781 Z M 605.222656 1296.632812 C 602.980469 1297.824219 600.558594 1298.421875 597.960938 1298.421875 C 594.875 1298 591.859375 1297.226562 588.910156 1296.105469 C 586.035156 1294.914062 583.894531 1293.472656 582.488281 1291.789062 C 581.71875 1286.949219 581.085938 1282.527344 580.59375 1278.527344 C 580.105469 1274.527344 579.71875 1270.738281 579.4375 1267.160156 C 579.15625 1263.511719 578.945312 1260.074219 578.804688 1256.847656 C 578.734375 1253.546875 578.699219 1250.214844 578.699219 1246.847656 C 578.699219 1242.425781 578.734375 1237.761719 578.804688 1232.847656 C 578.945312 1227.9375 579.085938 1222.710938 579.226562 1217.164062 C 579.367188 1211.621094 579.472656 1205.660156 579.542969 1199.273438 C 579.683594 1192.957031 579.753906 1186.082031 579.753906 1178.644531 C 581.015625 1178.644531 582.910156 1178.996094 585.4375 1179.695312 C 588.035156 1180.46875 590.558594 1181.34375 593.015625 1182.328125 C 595.542969 1183.308594 597.785156 1184.292969 599.75 1185.273438 C 601.714844 1186.328125 602.804688 1187.203125 603.015625 1187.90625 C 602.03125 1190.640625 601.15625 1194.222656 600.382812 1198.640625 C 599.679688 1203.0625 599.121094 1207.972656 598.699219 1213.375 C 598.207031 1218.78125 597.890625 1224.5 597.75 1230.53125 C 597.542969 1236.496094 597.4375 1242.425781 597.4375 1248.320312 C 597.4375 1252.742188 597.472656 1256.707031 597.542969 1260.214844 C 597.679688 1263.652344 597.820312 1266.773438 597.960938 1269.582031 C 598.101562 1272.386719 598.3125 1275.019531 598.59375 1277.476562 C 598.875 1279.863281 599.226562 1282.210938 599.644531 1284.527344 C 602.382812 1276.179688 605.398438 1267.828125 608.699219 1259.476562 C 611.996094 1251.128906 615.363281 1243.09375 618.800781 1235.375 C 622.3125 1227.726562 625.785156 1220.535156 629.222656 1213.796875 C 632.660156 1207.132812 635.921875 1201.308594 639.011719 1196.324219 C 642.097656 1191.414062 644.871094 1187.519531 647.324219 1184.644531 C 649.78125 1181.695312 651.816406 1180.117188 653.429688 1179.90625 C 654.484375 1180.117188 655.640625 1180.539062 656.902344 1181.167969 C 658.097656 1181.800781 659.253906 1182.574219 660.378906 1183.484375 C 661.429688 1184.398438 662.410156 1185.378906 663.324219 1186.433594 C 664.167969 1187.484375 664.832031 1188.570312 665.324219 1189.695312 C 661.675781 1190.957031 657.78125 1193.941406 653.640625 1198.640625 C 649.429688 1203.34375 645.21875 1209.027344 641.011719 1215.691406 C 636.800781 1222.289062 632.695312 1229.515625 628.695312 1237.375 C 624.765625 1245.164062 621.1875 1252.777344 617.960938 1260.214844 C 614.800781 1267.722656 612.066406 1274.703125 609.75 1281.160156 C 607.503906 1287.683594 605.996094 1292.84375 605.222656 1296.632812 Z M 727.421875 1278.84375 C 727.421875 1275.265625 727.984375 1270.667969 729.105469 1265.054688 C 730.230469 1259.371094 731.703125 1253.269531 733.527344 1246.742188 C 735.351562 1240.214844 737.421875 1233.550781 739.738281 1226.742188 C 742.125 1219.9375 744.542969 1213.515625 747 1207.484375 C 749.457031 1201.519531 751.84375 1196.253906 754.15625 1191.695312 C 756.542969 1187.203125 758.683594 1183.976562 760.578125 1182.011719 C 761.558594 1182.082031 762.859375 1182.46875 764.472656 1183.167969 C 766.085938 1183.800781 767.734375 1184.539062 769.417969 1185.378906 C 771.03125 1186.292969 772.542969 1187.273438 773.945312 1188.328125 C 775.347656 1189.308594 776.226562 1190.257812 776.578125 1191.167969 C 773.769531 1193.695312 770.960938 1197.554688 768.15625 1202.746094 C 765.347656 1207.867188 762.648438 1213.726562 760.050781 1220.324219 C 757.457031 1226.917969 755 1233.867188 752.683594 1241.164062 C 750.4375 1248.460938 748.472656 1255.546875 746.789062 1262.425781 C 745.175781 1269.300781 743.878906 1275.6875 742.894531 1281.582031 C 741.984375 1287.476562 741.527344 1292.246094 741.527344 1295.894531 C 741.527344 1297.578125 741.667969 1298.632812 741.949219 1299.050781 C 739.773438 1298.914062 738.195312 1298.527344 737.210938 1297.894531 C 736.230469 1297.261719 735.492188 1296.597656 735 1295.894531 C 734.441406 1295.125 733.949219 1294.386719 733.527344 1293.683594 C 733.035156 1292.914062 732.371094 1292.316406 731.527344 1291.894531 C 730.828125 1291.613281 730.230469 1290.949219 729.738281 1289.894531 C 729.246094 1288.773438 728.828125 1287.582031 728.476562 1286.316406 C 728.125 1284.984375 727.84375 1283.617188 727.632812 1282.210938 C 727.492188 1280.808594 727.421875 1279.6875 727.421875 1278.84375 Z M 939.085938 1187.90625 C 939.4375 1189.589844 939.683594 1190.746094 939.824219 1191.378906 C 939.964844 1192.011719 940.035156 1192.851562 940.035156 1193.90625 C 940.035156 1197.203125 939.332031 1200.253906 937.929688 1203.0625 C 936.457031 1205.796875 934.492188 1207.761719 932.035156 1208.957031 C 930.070312 1206.289062 927.683594 1204.007812 924.878906 1202.113281 C 922 1200.21875 918.878906 1198.640625 915.511719 1197.378906 C 912.070312 1196.183594 908.5625 1195.273438 904.984375 1194.640625 C 901.335938 1194.082031 897.792969 1193.800781 894.355469 1193.800781 C 890.917969 1193.800781 887.6875 1194.082031 884.671875 1194.640625 C 881.652344 1195.132812 878.988281 1195.871094 876.671875 1196.851562 C 874.425781 1197.765625 872.636719 1198.921875 871.304688 1200.324219 C 869.972656 1201.660156 869.304688 1203.203125 869.304688 1204.957031 C 869.585938 1207.132812 870.917969 1209.34375 873.304688 1211.585938 C 875.621094 1213.761719 878.496094 1215.902344 881.933594 1218.007812 C 885.371094 1220.113281 889.195312 1222.21875 893.40625 1224.324219 C 897.546875 1226.359375 901.652344 1228.324219 905.722656 1230.21875 C 910.703125 1232.53125 915.019531 1234.707031 918.667969 1236.742188 C 922.316406 1238.777344 925.296875 1240.988281 927.613281 1243.375 C 930 1245.757812 931.789062 1248.496094 932.980469 1251.582031 C 934.105469 1254.601562 934.667969 1258.285156 934.667969 1262.636719 C 934.667969 1267.617188 933.859375 1272.320312 932.246094 1276.738281 C 930.5625 1281.089844 928.105469 1284.878906 924.878906 1288.105469 C 921.71875 1291.335938 917.859375 1293.859375 913.300781 1295.683594 C 908.808594 1297.507812 903.757812 1298.421875 898.144531 1298.421875 C 892.671875 1298.421875 886.742188 1297.578125 880.355469 1295.894531 C 873.96875 1294.210938 868.007812 1291.929688 862.460938 1289.054688 C 856.917969 1286.175781 852.289062 1282.84375 848.570312 1279.054688 C 844.921875 1275.265625 843.097656 1271.265625 843.097656 1267.054688 C 843.097656 1265.089844 843.65625 1262.566406 844.78125 1259.476562 C 845.902344 1256.460938 847.9375 1253.269531 850.886719 1249.898438 C 851.164062 1252.847656 852.746094 1256.355469 855.621094 1260.425781 C 858.570312 1264.425781 862.917969 1268.144531 868.671875 1271.582031 C 874.074219 1274.738281 879.652344 1277.019531 885.40625 1278.421875 C 891.160156 1279.898438 896.53125 1280.632812 901.511719 1280.632812 C 907.054688 1280.632812 911.546875 1279.933594 914.984375 1278.527344 C 918.421875 1277.125 921.125 1275.476562 923.089844 1273.582031 C 925.054688 1271.6875 926.421875 1269.757812 927.191406 1267.792969 C 927.964844 1265.828125 928.421875 1264.25 928.5625 1263.054688 C 928.421875 1261.089844 927.507812 1259.195312 925.824219 1257.371094 C 924.070312 1255.546875 921.753906 1253.792969 918.878906 1252.109375 C 916 1250.355469 912.632812 1248.601562 908.773438 1246.847656 C 904.914062 1245.09375 900.949219 1243.339844 896.878906 1241.585938 C 890.636719 1238.777344 885.300781 1236.183594 880.882812 1233.796875 C 876.390625 1231.410156 872.707031 1228.953125 869.832031 1226.429688 C 866.882812 1223.902344 864.777344 1221.269531 863.515625 1218.535156 C 862.183594 1215.796875 861.515625 1212.675781 861.515625 1209.167969 C 861.515625 1203.625 863.164062 1198.394531 866.460938 1193.484375 C 869.832031 1188.570312 874.636719 1184.851562 880.882812 1182.328125 C 884.039062 1180.925781 887.40625 1179.941406 890.984375 1179.378906 C 894.566406 1178.75 898.074219 1178.433594 901.511719 1178.433594 C 908.039062 1178.433594 914.386719 1179.34375 920.5625 1181.167969 C 926.738281 1182.921875 932.910156 1185.167969 939.085938 1187.90625 Z M 1088.125 1179.90625 C 1089.949219 1180.75 1091.84375 1181.765625 1093.808594 1182.957031 C 1095.773438 1184.222656 1097.597656 1185.484375 1099.28125 1186.746094 C 1100.964844 1188.011719 1102.371094 1189.238281 1103.492188 1190.433594 C 1104.613281 1191.695312 1105.246094 1192.710938 1105.386719 1193.484375 C 1103.703125 1193.132812 1102.019531 1192.886719 1100.335938 1192.746094 C 1098.648438 1192.535156 1097.140625 1192.429688 1095.808594 1192.429688 C 1091.386719 1192.429688 1086.96875 1193.519531 1082.546875 1195.695312 C 1078.195312 1197.871094 1074.054688 1200.816406 1070.125 1204.535156 C 1066.199219 1208.253906 1062.546875 1212.640625 1059.179688 1217.691406 C 1055.882812 1222.675781 1053.003906 1228.007812 1050.550781 1233.691406 C 1048.164062 1239.445312 1046.304688 1245.339844 1044.972656 1251.375 C 1043.566406 1257.476562 1042.867188 1263.476562 1042.867188 1269.371094 C 1042.867188 1277.019531 1044.128906 1282.738281 1046.65625 1286.527344 C 1049.25 1290.246094 1053.003906 1292.105469 1057.917969 1292.105469 C 1060.234375 1292.105469 1062.792969 1291.648438 1065.601562 1290.738281 C 1068.335938 1289.753906 1071.109375 1288.421875 1073.914062 1286.738281 C 1076.792969 1285.125 1079.597656 1283.125 1082.335938 1280.738281 C 1085.074219 1278.351562 1087.632812 1275.757812 1090.019531 1272.949219 C 1093.457031 1268.808594 1096.546875 1264.109375 1099.28125 1258.847656 C 1102.019531 1253.582031 1104.367188 1248.003906 1106.332031 1242.109375 C 1108.226562 1236.214844 1109.703125 1230.148438 1110.753906 1223.902344 C 1111.738281 1217.65625 1112.226562 1211.550781 1112.226562 1205.589844 C 1112.226562 1203.203125 1112.191406 1201.203125 1112.121094 1199.589844 C 1112.050781 1197.976562 1111.914062 1196.605469 1111.703125 1195.484375 C 1111.5625 1194.359375 1111.457031 1193.449219 1111.386719 1192.746094 C 1111.316406 1192.046875 1111.210938 1191.449219 1111.070312 1190.957031 C 1112.261719 1191.589844 1113.5625 1192.328125 1114.964844 1193.167969 C 1116.4375 1194.011719 1117.769531 1195.238281 1118.964844 1196.851562 C 1120.226562 1198.464844 1121.28125 1200.605469 1122.121094 1203.273438 C 1122.894531 1205.867188 1123.28125 1209.308594 1123.28125 1213.585938 C 1123.28125 1220.464844 1122.472656 1227.199219 1120.859375 1233.796875 C 1119.246094 1240.460938 1117 1246.777344 1114.121094 1252.742188 C 1111.246094 1258.707031 1107.84375 1264.320312 1103.914062 1269.582031 C 1099.984375 1274.773438 1095.738281 1279.335938 1091.175781 1283.265625 C 1085.28125 1288.457031 1079.003906 1292.492188 1072.335938 1295.367188 C 1065.671875 1298.175781 1059.25 1299.578125 1053.074219 1299.578125 C 1044.023438 1299.578125 1037.113281 1296.703125 1032.339844 1290.949219 C 1027.570312 1285.195312 1025.183594 1276.738281 1025.183594 1265.582031 C 1025.183594 1259.546875 1025.851562 1253.199219 1027.183594 1246.53125 C 1028.515625 1239.867188 1030.375 1233.304688 1032.761719 1226.847656 C 1035.148438 1220.324219 1038.023438 1214.148438 1041.394531 1208.324219 C 1044.761719 1202.5 1048.410156 1197.34375 1052.339844 1192.851562 C 1056.339844 1188.363281 1060.617188 1184.78125 1065.179688 1182.117188 C 1069.742188 1179.519531 1074.441406 1178.222656 1079.285156 1178.222656 C 1080.828125 1178.222656 1082.300781 1178.328125 1083.703125 1178.539062 C 1085.039062 1178.820312 1086.511719 1179.273438 1088.125 1179.90625 Z M 1300.628906 1206.007812 C 1300.628906 1210.710938 1299.542969 1215.167969 1297.367188 1219.375 C 1295.261719 1223.515625 1292.351562 1227.234375 1288.632812 1230.53125 C 1284.914062 1233.832031 1280.5625 1236.601562 1275.582031 1238.847656 C 1270.527344 1241.164062 1265.054688 1242.707031 1259.160156 1243.480469 C 1260.632812 1247.898438 1262.425781 1252.425781 1264.527344 1257.058594 C 1266.632812 1261.757812 1268.914062 1266.25 1271.371094 1270.527344 C 1273.828125 1274.878906 1276.386719 1278.878906 1279.054688 1282.527344 C 1281.71875 1286.175781 1284.316406 1289.160156 1286.84375 1291.472656 C 1286.351562 1292.457031 1285.648438 1293.4375 1284.738281 1294.421875 C 1283.824219 1295.402344 1282.738281 1296.316406 1281.476562 1297.15625 C 1280.28125 1298 1279.019531 1298.703125 1277.683594 1299.261719 C 1276.351562 1299.753906 1275.089844 1300 1273.894531 1300 C 1271.722656 1300 1269.652344 1298.984375 1267.6875 1296.949219 C 1265.722656 1294.914062 1263.757812 1291.648438 1261.792969 1287.160156 C 1259.757812 1282.667969 1257.652344 1276.878906 1255.476562 1269.792969 C 1253.230469 1262.636719 1250.777344 1254.039062 1248.109375 1244.003906 C 1247.058594 1244.003906 1245.96875 1244.003906 1244.847656 1244.003906 C 1243.792969 1244.003906 1242.988281 1243.933594 1242.425781 1243.796875 C 1241.722656 1243.375 1240.988281 1242.671875 1240.214844 1241.691406 C 1237.550781 1247.375 1235.164062 1252.742188 1233.058594 1257.792969 C 1231.023438 1262.777344 1229.199219 1267.617188 1227.585938 1272.320312 C 1225.972656 1276.949219 1224.53125 1281.441406 1223.269531 1285.789062 C 1222.078125 1290.210938 1221.023438 1294.667969 1220.113281 1299.15625 C 1216.8125 1298.386719 1213.9375 1296.949219 1211.480469 1294.84375 C 1209.027344 1292.808594 1206.710938 1289.929688 1204.535156 1286.210938 C 1204.886719 1285.300781 1205.304688 1284.421875 1205.796875 1283.582031 C 1206.21875 1282.738281 1206.78125 1281.582031 1207.480469 1280.105469 C 1208.183594 1278.5625 1209.027344 1276.597656 1210.007812 1274.214844 C 1211.058594 1271.898438 1212.464844 1268.773438 1214.21875 1264.84375 C 1215.902344 1260.917969 1217.9375 1256.109375 1220.324219 1250.425781 C 1222.777344 1244.671875 1225.726562 1237.726562 1229.164062 1229.585938 C 1230.707031 1225.9375 1232.039062 1222.746094 1233.164062 1220.007812 C 1234.285156 1217.269531 1235.304688 1214.640625 1236.214844 1212.113281 C 1237.058594 1209.65625 1237.863281 1207.167969 1238.636719 1204.640625 C 1239.339844 1202.113281 1240.109375 1199.238281 1240.953125 1196.011719 C 1236.390625 1197.554688 1232.179688 1199.308594 1228.320312 1201.273438 C 1224.460938 1203.167969 1221.234375 1205.203125 1218.636719 1207.378906 C 1217.796875 1206.746094 1216.882812 1205.867188 1215.902344 1204.746094 C 1214.988281 1203.554688 1214.148438 1202.21875 1213.375 1200.746094 C 1212.605469 1199.34375 1211.902344 1197.90625 1211.269531 1196.429688 C 1210.710938 1194.957031 1210.359375 1193.625 1210.21875 1192.429688 C 1213.164062 1190.464844 1216.777344 1188.675781 1221.058594 1187.0625 C 1225.339844 1185.378906 1229.902344 1183.90625 1234.742188 1182.644531 C 1239.515625 1181.449219 1244.425781 1180.503906 1249.476562 1179.800781 C 1254.460938 1179.097656 1259.125 1178.75 1263.476562 1178.75 C 1275.265625 1178.75 1284.386719 1181.167969 1290.84375 1186.011719 C 1297.367188 1190.921875 1300.628906 1197.589844 1300.628906 1206.007812 Z M 1262.84375 1190.851562 L 1264.632812 1193.695312 C 1263.933594 1194.535156 1262.84375 1196.289062 1261.371094 1198.957031 C 1259.898438 1201.625 1258.214844 1204.78125 1256.320312 1208.429688 C 1254.425781 1212.148438 1252.425781 1216.148438 1250.320312 1220.429688 C 1248.144531 1224.777344 1246.074219 1229.058594 1244.109375 1233.269531 C 1251.476562 1233.269531 1258.285156 1232.601562 1264.527344 1231.269531 C 1270.703125 1229.867188 1276.035156 1227.902344 1280.527344 1225.375 C 1285.089844 1222.917969 1288.597656 1219.972656 1291.050781 1216.535156 C 1293.578125 1213.167969 1294.839844 1209.414062 1294.839844 1205.273438 C 1294.839844 1200.359375 1293.085938 1196.605469 1289.578125 1194.011719 C 1286 1191.414062 1280.527344 1190.117188 1273.160156 1190.117188 C 1271.476562 1190.117188 1269.828125 1190.1875 1268.210938 1190.328125 C 1266.527344 1190.464844 1264.738281 1190.640625 1262.84375 1190.851562 Z M 1262.84375 1190.851562 "/>
</g>
</svg>
